<svg width="266" height="266" viewBox="0 0 266 266" fill="none" xmlns="http://www.w3.org/2000/svg">
<g opacity="0.8">
<path d="M231.992 137.661C228.706 137.661 226.033 134.957 226.033 131.633C226.033 128.309 228.706 125.606 231.992 125.606C235.278 125.606 237.952 128.309 237.952 131.633C237.952 134.957 235.279 137.661 231.992 137.661ZM231.992 125.97C228.905 125.97 226.394 128.51 226.394 131.633C226.394 134.756 228.906 137.297 231.992 137.297C235.079 137.297 237.591 134.756 237.591 131.633C237.591 128.51 235.08 125.97 231.992 125.97Z" fill="#0973C0"/>
</g>
<path d="M233.688 131.633C233.688 132.58 232.929 133.348 231.993 133.348C231.057 133.348 230.298 132.58 230.298 131.633C230.298 130.686 231.057 129.919 231.993 129.919C232.929 129.919 233.688 130.686 233.688 131.633Z" fill="#0973C0"/>
<path opacity="0.7" d="M233.688 131.633C233.688 132.58 232.929 133.348 231.993 133.348C231.057 133.348 230.298 132.58 230.298 131.633C230.298 130.686 231.057 129.919 231.993 129.919C232.929 129.919 233.688 130.686 233.688 131.633Z" fill="white"/>
<g opacity="0.8">
<path d="M187.194 41.82C184.878 41.82 182.995 39.9149 182.995 37.573C182.995 35.2306 184.878 33.3255 187.194 33.3255C189.509 33.3255 191.392 35.2306 191.392 37.573C191.392 39.9154 189.509 41.82 187.194 41.82ZM187.194 33.6905C185.077 33.6905 183.355 35.4328 183.355 37.5736C183.355 39.7143 185.077 41.4556 187.194 41.4556C189.31 41.4556 191.032 39.7138 191.032 37.5736C191.032 35.4328 189.31 33.6905 187.194 33.6905Z" fill="#0973C0"/>
</g>
<path d="M188.373 37.5736C188.373 38.2322 187.845 38.7658 187.194 38.7658C186.543 38.7658 186.015 38.2322 186.015 37.5736C186.015 36.9149 186.543 36.3813 187.194 36.3813C187.845 36.3813 188.373 36.9149 188.373 37.5736Z" fill="#0973C0"/>
<path opacity="0.7" d="M188.373 37.5736C188.373 38.2322 187.845 38.7658 187.194 38.7658C186.543 38.7658 186.015 38.2322 186.015 37.5736C186.015 36.9149 186.543 36.3813 187.194 36.3813C187.845 36.3813 188.373 36.9149 188.373 37.5736Z" fill="white"/>
<g opacity="0.8">
<path d="M36.6261 208.914C34.173 208.914 32.1769 206.895 32.1769 204.414C32.1769 201.932 34.173 199.913 36.6261 199.913C39.0796 199.913 41.0757 201.932 41.0757 204.414C41.0757 206.895 39.0796 208.914 36.6261 208.914ZM36.6261 200.277C34.3714 200.277 32.5371 202.133 32.5371 204.414C32.5371 206.694 34.3714 208.549 36.6261 208.549C38.8807 208.549 40.715 206.694 40.715 204.414C40.7155 202.133 38.8807 200.277 36.6261 200.277Z" fill="#0973C0"/>
</g>
<path d="M37.8783 204.413C37.8783 205.113 37.3176 205.68 36.626 205.68C35.9344 205.68 35.3737 205.113 35.3737 204.413C35.3737 203.714 35.9344 203.146 36.626 203.146C37.3176 203.146 37.8783 203.714 37.8783 204.413Z" fill="#0973C0"/>
<path opacity="0.7" d="M37.8783 204.413C37.8783 205.113 37.3176 205.68 36.626 205.68C35.9344 205.68 35.3737 205.113 35.3737 204.413C35.3737 203.714 35.9344 203.146 36.626 203.146C37.3176 203.146 37.8783 203.714 37.8783 204.413Z" fill="white"/>
<path d="M235.067 53.3879C235.067 54.0763 234.516 54.6343 233.835 54.6343C233.155 54.6343 232.603 54.0763 232.603 53.3879C232.603 52.6995 233.155 52.1414 233.835 52.1414C234.516 52.1414 235.067 52.6995 235.067 53.3879Z" fill="#0973C0"/>
<path opacity="0.7" d="M235.067 53.3879C235.067 54.0763 234.516 54.6343 233.835 54.6343C233.155 54.6343 232.603 54.0763 232.603 53.3879C232.603 52.6995 233.155 52.1414 233.835 52.1414C234.516 52.1414 235.067 52.6995 235.067 53.3879Z" fill="white"/>
<path d="M231.385 56.7932C231.385 57.2039 231.056 57.537 230.65 57.537C230.244 57.537 229.915 57.2039 229.915 56.7932C229.915 56.3825 230.244 56.0495 230.65 56.0495C231.056 56.049 231.385 56.382 231.385 56.7932Z" fill="#0973C0"/>
<path opacity="0.7" d="M231.385 56.7932C231.385 57.2039 231.056 57.537 230.65 57.537C230.244 57.537 229.915 57.2039 229.915 56.7932C229.915 56.3825 230.244 56.0495 230.65 56.0495C231.056 56.049 231.385 56.382 231.385 56.7932Z" fill="white"/>
<path d="M229.301 52.1413C229.301 52.4728 229.035 52.7414 228.707 52.7414C228.38 52.7414 228.114 52.4728 228.114 52.1413C228.114 51.8099 228.38 51.5418 228.707 51.5418C229.035 51.5418 229.301 51.8099 229.301 52.1413Z" fill="#0973C0"/>
<path opacity="0.8" d="M229.301 52.1413C229.301 52.4728 229.035 52.7414 228.707 52.7414C228.38 52.7414 228.114 52.4728 228.114 52.1413C228.114 51.8099 228.38 51.5418 228.707 51.5418C229.035 51.5418 229.301 51.8099 229.301 52.1413Z" fill="white"/>
<path d="M26.0456 91.9743C26.0456 92.6627 25.494 93.2208 24.8135 93.2208C24.1331 93.2208 23.5814 92.6627 23.5814 91.9743C23.5814 91.2859 24.1331 90.7278 24.8135 90.7278C25.494 90.7278 26.0456 91.2859 26.0456 91.9743Z" fill="#0973C0"/>
<path opacity="0.7" d="M26.0456 91.9743C26.0456 92.6627 25.494 93.2208 24.8135 93.2208C24.1331 93.2208 23.5814 92.6627 23.5814 91.9743C23.5814 91.2859 24.1331 90.7278 24.8135 90.7278C25.494 90.7278 26.0456 91.2859 26.0456 91.9743Z" fill="white"/>
<path d="M22.3642 95.3797C22.3642 95.7904 22.0349 96.1234 21.629 96.1234C21.223 96.1234 20.8937 95.7904 20.8937 95.3797C20.8937 94.969 21.223 94.636 21.629 94.636C22.0349 94.6354 22.3642 94.9685 22.3642 95.3797Z" fill="#0973C0"/>
<path opacity="0.7" d="M22.3642 95.3797C22.3642 95.7904 22.0349 96.1234 21.629 96.1234C21.223 96.1234 20.8937 95.7904 20.8937 95.3797C20.8937 94.969 21.223 94.636 21.629 94.636C22.0349 94.6354 22.3642 94.9685 22.3642 95.3797Z" fill="white"/>
<path d="M20.2787 90.7278C20.2787 91.0593 20.0133 91.3279 19.6861 91.3279C19.3589 91.3279 19.0929 91.0593 19.0929 90.7278C19.0929 90.3964 19.3584 90.1283 19.6861 90.1283C20.0133 90.1283 20.2787 90.3969 20.2787 90.7278Z" fill="#0973C0"/>
<path opacity="0.8" d="M20.2787 90.7278C20.2787 91.0593 20.0133 91.3279 19.6861 91.3279C19.3589 91.3279 19.0929 91.0593 19.0929 90.7278C19.0929 90.3964 19.3584 90.1283 19.6861 90.1283C20.0133 90.1283 20.2787 90.3969 20.2787 90.7278Z" fill="white"/>
<path d="M135.691 218.603C135.691 219.292 135.139 219.85 134.459 219.85C133.778 219.85 133.227 219.292 133.227 218.603C133.227 217.915 133.778 217.357 134.459 217.357C135.139 217.357 135.691 217.915 135.691 218.603Z" fill="#0973C0"/>
<path opacity="0.7" d="M135.691 218.603C135.691 219.292 135.139 219.85 134.459 219.85C133.778 219.85 133.227 219.292 133.227 218.603C133.227 217.915 133.778 217.357 134.459 217.357C135.139 217.357 135.691 217.915 135.691 218.603Z" fill="white"/>
<path d="M132.009 222.009C132.009 222.42 131.68 222.753 131.274 222.753C130.868 222.753 130.538 222.42 130.538 222.009C130.538 221.598 130.868 221.265 131.274 221.265C131.68 221.265 132.009 221.598 132.009 222.009Z" fill="#0973C0"/>
<path opacity="0.7" d="M132.009 222.009C132.009 222.42 131.68 222.753 131.274 222.753C130.868 222.753 130.538 222.42 130.538 222.009C130.538 221.598 130.868 221.265 131.274 221.265C131.68 221.265 132.009 221.598 132.009 222.009Z" fill="white"/>
<path d="M129.923 217.357C129.923 217.689 129.658 217.957 129.33 217.957C129.003 217.957 128.737 217.689 128.737 217.357C128.737 217.026 129.003 216.758 129.33 216.758C129.658 216.758 129.923 217.026 129.923 217.357Z" fill="#0973C0"/>
<path opacity="0.8" d="M129.923 217.357C129.923 217.689 129.658 217.957 129.33 217.957C129.003 217.957 128.737 217.689 128.737 217.357C128.737 217.026 129.003 216.758 129.33 216.758C129.658 216.758 129.923 217.026 129.923 217.357Z" fill="white"/>
<path d="M208.34 124.399C208.364 124.897 208.782 125.281 209.274 125.256C209.766 125.232 210.146 124.809 210.122 124.311C210.098 123.813 209.68 123.429 209.188 123.453C208.696 123.478 208.316 123.901 208.34 124.399Z" fill="#0973C0"/>
<path opacity="0.7" d="M208.34 124.399C208.364 124.897 208.782 125.281 209.274 125.256C209.766 125.232 210.146 124.809 210.122 124.311C210.098 123.813 209.68 123.429 209.188 123.453C208.696 123.478 208.316 123.901 208.34 124.399Z" fill="white"/>
<path d="M206.501 128.23C206.695 128.045 206.999 128.055 207.181 128.25C207.363 128.446 207.354 128.754 207.161 128.938C206.968 129.122 206.663 129.113 206.481 128.917C206.299 128.722 206.308 128.414 206.501 128.23Z" fill="#0973C0"/>
<path opacity="0.8" d="M206.501 128.23C206.695 128.045 206.999 128.055 207.181 128.25C207.363 128.446 207.354 128.754 207.161 128.938C206.968 129.122 206.663 129.113 206.481 128.917C206.299 128.722 206.308 128.414 206.501 128.23Z" fill="white"/>
<path d="M84.3832 32.003C84.1513 32.443 84.3162 32.9893 84.7508 33.2239C85.1855 33.4585 85.726 33.292 85.9579 32.8521C86.1899 32.4121 86.025 31.8657 85.5903 31.6311C85.1552 31.3965 84.6152 31.563 84.3832 32.003Z" fill="#0973C0"/>
<path opacity="0.7" d="M84.3832 32.003C84.1513 32.443 84.3162 32.9893 84.7508 33.2239C85.1855 33.4585 85.726 33.292 85.9579 32.8521C86.1899 32.4121 86.025 31.8657 85.5903 31.6311C85.1552 31.3965 84.6152 31.563 84.3832 32.003Z" fill="white"/>
<path d="M80.8619 34.3385C81.1215 34.2805 81.3779 34.4465 81.4354 34.7088C81.4928 34.971 81.329 35.2307 81.0693 35.2886C80.8097 35.3466 80.5533 35.1806 80.4959 34.9184C80.4389 34.6566 80.6028 34.3965 80.8619 34.3385Z" fill="#0973C0"/>
<path opacity="0.8" d="M80.8619 34.3385C81.1215 34.2805 81.3779 34.4465 81.4354 34.7088C81.4928 34.971 81.329 35.2307 81.0693 35.2886C80.8097 35.3466 80.5533 35.1806 80.4959 34.9184C80.4389 34.6566 80.6028 34.3965 80.8619 34.3385Z" fill="white"/>
<path d="M247.199 150.234C247.692 150.23 248.088 149.823 248.084 149.324C248.08 148.826 247.677 148.425 247.184 148.43C246.692 148.434 246.295 148.841 246.299 149.339C246.304 149.838 246.706 150.238 247.199 150.234Z" fill="#0973C0"/>
<path opacity="0.7" d="M247.199 150.234C247.692 150.23 248.088 149.823 248.084 149.324C248.08 148.826 247.677 148.425 247.184 148.43C246.692 148.434 246.295 148.841 246.299 149.339C246.304 149.838 246.706 150.238 247.199 150.234Z" fill="white"/>
<path d="M250.91 152.247C250.735 152.044 250.757 151.737 250.957 151.561C251.158 151.384 251.461 151.406 251.636 151.609C251.81 151.812 251.789 152.119 251.588 152.295C251.388 152.472 251.084 152.45 250.91 152.247Z" fill="#0973C0"/>
<path opacity="0.8" d="M250.91 152.247C250.735 152.044 250.757 151.737 250.957 151.561C251.158 151.384 251.461 151.406 251.636 151.609C251.81 151.812 251.789 152.119 251.588 152.295C251.388 152.472 251.084 152.45 250.91 152.247Z" fill="white"/>
<path d="M250.61 147.74C250.436 147.537 250.457 147.229 250.658 147.053C250.858 146.877 251.162 146.899 251.337 147.101C251.511 147.304 251.49 147.611 251.289 147.788C251.089 147.964 250.785 147.942 250.61 147.74Z" fill="#0973C0"/>
<path opacity="0.8" d="M250.61 147.74C250.436 147.537 250.457 147.229 250.658 147.053C250.858 146.877 251.162 146.899 251.337 147.101C251.511 147.304 251.49 147.611 251.289 147.788C251.089 147.964 250.785 147.942 250.61 147.74Z" fill="white"/>
<path d="M203.042 221.156C217.56 221.156 229.329 209.251 229.329 194.565C229.329 179.879 217.56 167.973 203.042 167.973C188.523 167.973 176.754 179.879 176.754 194.565C176.754 209.251 188.523 221.156 203.042 221.156Z" fill="#0973C0"/>
<path opacity="0.75" d="M203.042 221.156C217.56 221.156 229.329 209.251 229.329 194.565C229.329 179.879 217.56 167.973 203.042 167.973C188.523 167.973 176.754 179.879 176.754 194.565C176.754 209.251 188.523 221.156 203.042 221.156Z" fill="white"/>
<g opacity="0.2">
<path d="M181.459 198.322C183.614 197.956 185.751 197.48 187.869 196.938C189.982 196.397 192.076 195.78 194.146 195.087C196.262 194.38 198.429 193.299 200.695 193.284C202.671 193.271 204.554 193.568 206.532 193.268C208.474 192.973 210.352 192.344 212.119 191.482C215.804 189.686 218.86 186.888 221.578 183.841C222.737 182.543 223.841 181.193 224.926 179.83C224.523 179.218 224.1 178.62 223.651 178.047C222.538 179.443 221.418 180.835 220.245 182.181C217.783 185.005 215.021 187.653 211.711 189.433C210.014 190.346 208.194 191.03 206.291 191.343C204.283 191.675 202.333 191.261 200.327 191.333C198.26 191.407 196.361 192.24 194.441 192.927C192.515 193.617 190.565 194.239 188.597 194.793C186.319 195.435 184.017 195.966 181.701 196.449C180.267 196.748 178.825 196.993 177.381 197.235C177.221 197.261 177.06 197.287 176.9 197.312C176.957 197.864 177.027 198.416 177.119 198.97C178.581 198.846 180.05 198.561 181.459 198.322Z" fill="#0973C0"/>
<path d="M184.32 191.823C187.65 191.188 190.853 190.017 193.862 188.447C196.733 186.949 199.552 184.593 203.023 185.097C205.471 185.453 208.611 185.199 210.802 183.957C213.807 182.254 216.704 180.009 218.864 177.287C219.477 176.514 220.192 175.777 220.842 175C220.311 174.507 219.764 174.034 219.196 173.587C219.045 173.779 218.894 173.967 218.742 174.14C218.199 174.76 217.643 175.37 217.087 175.979C215.877 177.303 214.798 178.709 213.319 179.744C211.755 180.838 210.058 181.869 208.25 182.496C207.227 182.852 204.208 183.644 203.496 182.326C203.308 181.977 203.607 181.571 203.885 181.289C206.227 178.913 208.718 176.668 210.626 173.914C211.103 173.225 211.588 172.522 211.837 171.72C212.006 171.178 212.062 170.607 212.089 170.039C212.096 169.889 212.088 169.741 212.072 169.595C211.613 169.425 211.149 169.268 210.679 169.123C210.667 169.178 210.653 169.227 210.641 169.288C210.287 171.192 208.612 173.277 207.465 174.792C205.856 176.916 203.831 178.671 201.813 180.382C197.001 184.465 191.649 187.815 185.505 189.43C182.697 190.168 179.927 190.341 177.094 190.304C176.991 190.948 176.908 191.597 176.851 192.251C179.332 192.515 181.904 192.285 184.32 191.823Z" fill="#0973C0"/>
<path d="M192.318 182.882C197.049 180.842 201.816 178.026 205.367 174.206C206.256 173.25 207.05 172.195 207.658 171.033C208.023 170.335 208.438 169.44 208.573 168.569C208.169 168.481 207.761 168.401 207.351 168.332C207.333 168.397 207.317 168.459 207.295 168.524C207.122 169.045 206.905 169.548 206.655 170.035C206.114 171.088 205.417 172.048 204.634 172.929C202.994 174.774 201.012 176.25 198.963 177.594C194.461 180.551 189.529 182.783 184.302 184.052C182.396 184.516 180.446 184.859 178.486 185.072C178.309 185.54 178.147 186.015 177.996 186.494C182.923 186.028 187.751 184.851 192.318 182.882Z" fill="#0973C0"/>
<path d="M182.317 180.406C183.951 180.386 185.573 180.169 187.16 179.777C190.195 179.028 193.04 177.722 195.759 176.187C198.463 174.66 201.317 173.048 203.624 170.936C204.513 170.122 205.298 169.187 205.888 168.131C205.124 168.047 204.354 167.994 203.578 167.979C202.918 168.869 202.104 169.654 201.247 170.337C199.014 172.116 196.462 173.62 193.963 174.98C191.478 176.333 188.86 177.5 186.093 178.108C184.762 178.401 183.395 178.58 182.032 178.592C181.608 179.164 181.201 179.75 180.823 180.354C181.321 180.389 181.819 180.411 182.317 180.406Z" fill="#0973C0"/>
<path d="M227.284 200.43C225.497 203.347 223.295 205.992 220.729 208.237C218.218 210.432 215.027 212.783 211.547 212.711C209.768 212.674 208.328 211.503 206.55 211.461C204.628 211.416 202.808 212.355 201.048 213.012C198.81 213.847 196.541 214.572 194.227 215.162C192.141 215.695 189.993 216.069 187.838 216.255C188.545 216.762 189.276 217.234 190.028 217.668C192.197 217.471 194.35 217.074 196.453 216.506C198.541 215.942 200.595 215.251 202.623 214.498C203.556 214.152 204.479 213.759 205.448 213.532C206.146 213.369 209.267 213.647 208.862 214.717C208.619 215.357 207.292 215.746 206.745 216.037C205.93 216.47 205.121 216.915 204.312 217.36C202.496 218.357 200.675 219.361 198.787 220.213C198.466 220.358 198.14 220.491 197.814 220.625C198.778 220.823 199.755 220.97 200.746 221.058C202.251 220.371 203.712 219.594 205.168 218.8C207.501 217.528 209.985 216.351 212.44 215.249C214.911 214.14 217.466 213.229 219.694 211.677C222.811 209.506 225.544 206.692 227.761 203.596C228.55 201.393 229.063 199.075 229.251 196.691C228.674 197.977 228.021 199.228 227.284 200.43Z" fill="#0973C0"/>
<path d="M195.333 198.264C193.344 199.475 191.183 200.471 188.999 201.262C186.911 202.018 184.758 202.599 182.597 203.101C181.352 203.39 180.097 203.634 178.842 203.87C178.71 203.894 178.58 203.921 178.448 203.947C178.65 204.489 178.862 205.026 179.096 205.548C180.293 205.408 181.481 205.219 182.666 204.998C185.052 204.554 187.397 203.942 189.685 203.12C191.948 202.307 194.112 201.311 196.161 200.042C198.104 198.838 199.86 197.264 202.08 196.599C202.327 196.525 202.198 196.053 201.985 196.015C199.498 195.574 197.369 197.025 195.333 198.264Z" fill="#0973C0"/>
<path d="M204.713 206.614C208.608 204.679 212.388 202.435 216.035 200.055C219.573 197.747 222.785 195.123 225.418 191.776C226.486 190.417 227.45 188.973 228.386 187.514C228.153 186.654 227.879 185.815 227.568 184.998C226.544 186.569 225.501 188.126 224.373 189.623C221.933 192.862 219.101 195.534 215.762 197.81C212.425 200.085 208.897 202.149 205.334 204.038C201.726 205.95 197.966 207.601 193.999 208.579C191.92 209.091 189.807 209.456 187.667 209.559C185.454 209.665 183.28 209.496 181.105 209.221C181.48 209.796 181.875 210.353 182.292 210.893C185.62 211.674 189.195 211.464 192.521 210.882C196.771 210.138 200.855 208.531 204.713 206.614Z" fill="#0973C0"/>
<path d="M210.053 196.936C207.954 198.23 205.769 199.553 203.483 200.474C203.41 200.503 203.414 200.701 203.506 200.673C205.867 199.957 208.146 199.235 210.34 198.077C212.437 196.971 214.454 195.669 216.302 194.174C219.879 191.281 223.01 187.825 225.51 183.942C225.831 183.443 226.137 182.936 226.436 182.424C226.176 181.911 225.895 181.411 225.605 180.919C221.921 187.51 216.471 192.98 210.053 196.936Z" fill="#0973C0"/>
<path d="M227.886 192.497C226.53 194.468 225 196.317 223.464 198.146C221.755 200.183 219.917 201.98 217.731 203.488C216.692 204.206 215.619 204.871 214.539 205.522C213.897 205.91 213.224 206.241 212.588 206.637C212.015 206.995 211.327 207.227 210.801 207.643C210.608 207.796 210.782 208.328 211.039 208.301C211.685 208.234 212.256 207.935 212.879 207.767C213.508 207.597 214.11 207.406 214.717 207.16C216.087 206.606 217.4 205.986 218.661 205.207C221.084 203.708 223.138 201.714 224.985 199.546C226.489 197.779 227.999 195.975 229.329 194.062C229.307 192.926 229.204 191.781 229.032 190.632C228.677 191.27 228.3 191.895 227.886 192.497Z" fill="#0973C0"/>
</g>
<path opacity="0.3" d="M201.169 168.038C211.071 167.79 223.633 183.096 220.858 198.298C217.907 214.461 198.825 221.735 188.284 216.56L188.275 216.563C194.082 220.55 201.443 222.19 208.83 220.503C222.991 217.269 231.88 203.035 228.683 188.709C225.782 175.707 213.923 167.1 201.169 168.038Z" fill="#0973C0"/>
<path opacity="0.2" d="M208.83 220.503C222.992 217.269 231.881 203.035 228.684 188.709C226.604 179.388 219.919 172.325 211.601 169.42C212.635 169.797 225.681 174.528 226.447 193.414C227.244 213.074 208.837 220.501 204.739 221.104C206.095 221.013 207.462 220.816 208.83 220.503Z" fill="#0973C0"/>
<path opacity="0.4" d="M196.656 178.781C196.156 176.54 193.955 175.134 191.74 175.64C189.524 176.146 188.134 178.373 188.634 180.613C189.134 182.854 191.335 184.261 193.551 183.755C195.766 183.249 197.157 181.022 196.656 178.781ZM185.637 185.149C181.829 186.019 179.438 189.847 180.298 193.7C181.158 197.553 184.942 199.971 188.751 199.101C192.56 198.231 194.95 194.403 194.09 190.55C193.23 186.698 189.446 184.279 185.637 185.149ZM198.947 184.983C197.202 185.381 196.107 187.135 196.501 188.899C196.895 190.663 198.628 191.771 200.372 191.373C202.117 190.974 203.212 189.221 202.818 187.456C202.424 185.692 200.691 184.585 198.947 184.983Z" fill="white"/>
<g opacity="0.6">
<path d="M188.813 217.715C189.131 217.628 189.454 217.536 189.778 217.435C203.739 213.307 220.741 200.54 228.687 188.216C228.88 187.936 229.056 187.644 229.237 187.358C237.11 174.493 231.775 167.224 217.321 171.134C216.948 171.237 216.571 171.344 216.191 171.461C217.369 172.138 218.491 172.909 219.552 173.766C224.426 173.892 226.728 176.622 225.863 181.133C225.509 183.003 224.616 185.168 223.138 187.588C216.836 197.888 202.36 208.758 190.79 211.881C188.078 212.607 185.771 212.846 183.903 212.653C179.379 212.189 177.458 209.164 178.749 204.408C178.446 203.645 178.179 202.863 177.944 202.057C177.792 201.533 177.655 201.007 177.542 200.479C177.321 200.812 177.105 201.151 176.904 201.487C169.02 214.35 174.355 221.62 188.813 217.715Z" fill="#0973C0"/>
</g>
<g opacity="0.7">
<path d="M186.816 225.083C190.502 224.087 194.37 222.585 198.278 220.683C209.449 215.274 220.949 206.638 229.305 197.383C232.235 194.149 234.777 190.838 236.786 187.558C246.519 171.65 239.924 162.665 222.05 167.49C219.446 168.194 216.738 169.153 213.989 170.328C214.521 170.566 215.049 170.833 215.556 171.116C216.424 170.817 217.286 170.556 218.139 170.327C233.241 166.248 238.815 173.843 230.591 187.282C230.102 188.086 229.57 188.888 229 189.695C220.673 201.591 204.733 213.553 191.081 218.171C190.164 218.482 189.247 218.758 188.354 219.001C173.247 223.083 167.673 215.489 175.907 202.041C176.365 201.286 176.866 200.532 177.391 199.777C177.271 199.195 177.174 198.621 177.102 198.037C175.197 200.35 173.506 202.694 172.086 205.012C162.342 220.927 168.937 229.912 186.816 225.083Z" fill="#0973C0"/>
</g>
<path d="M219.945 169.387C222.494 168.746 225.115 168.312 227.738 168.41C229.046 168.468 230.351 168.659 231.589 169.066C232.82 169.477 234.001 170.095 234.923 171.009C235.851 171.911 236.53 173.058 236.894 174.307C237.247 175.561 237.313 176.886 237.193 178.189C236.951 180.807 235.998 183.315 234.83 185.665C232.412 190.353 229.095 194.532 225.48 198.359C221.852 202.188 217.871 205.669 213.662 208.832C209.452 211.992 205.007 214.843 200.335 217.249C195.668 219.646 190.754 221.639 185.62 222.643C183.058 223.108 180.417 223.327 177.853 222.881C176.578 222.66 175.325 222.266 174.203 221.623C173.074 220.994 172.122 220.062 171.468 218.943C170.799 217.829 170.462 216.527 170.398 215.215C170.327 213.901 170.498 212.577 170.805 211.291C171.444 208.716 172.608 206.299 173.953 204.017C172.562 206.27 171.345 208.665 170.647 211.25C170.311 212.541 170.108 213.879 170.154 215.226C170.191 216.57 170.51 217.927 171.186 219.108C171.851 220.292 172.848 221.281 174.016 221.951C175.178 222.635 176.47 223.056 177.78 223.3C180.413 223.788 183.104 223.594 185.711 223.152C188.323 222.688 190.875 221.939 193.354 221.013C195.836 220.091 198.253 218.999 200.609 217.796C205.325 215.389 209.811 212.539 214.06 209.372C218.285 206.171 222.279 202.652 225.92 198.78C227.741 196.847 229.471 194.821 231.061 192.685C232.653 190.551 234.103 188.298 235.286 185.896C236.446 183.494 237.391 180.928 237.611 178.225C237.72 176.881 237.637 175.505 237.253 174.198C236.857 172.898 236.133 171.695 235.146 170.77C234.162 169.836 232.929 169.226 231.664 168.832C230.39 168.442 229.064 168.277 227.745 168.246C225.097 168.203 222.481 168.693 219.945 169.387Z" fill="#0973C0"/>
<path d="M222.142 171.741C223.943 171.834 225.797 172.264 227.232 173.385L227.76 173.809L228.204 174.319L228.426 174.574C228.491 174.666 228.543 174.767 228.602 174.863L228.947 175.444C229.305 176.27 229.561 177.149 229.588 178.056C229.702 179.867 229.275 181.675 228.643 183.372C228.026 185.086 227.107 186.671 226.157 188.219C224.176 191.277 221.817 194.077 219.257 196.663C216.702 199.257 213.937 201.636 211.038 203.828C208.143 206.028 205.102 208.031 201.929 209.793C198.749 211.537 195.441 213.063 191.988 214.146C190.261 214.68 188.494 215.087 186.703 215.29C184.918 215.49 183.085 215.489 181.347 215.027C180.923 214.885 180.474 214.803 180.078 214.59L179.465 214.31C179.271 214.199 179.089 214.067 178.9 213.946C178.503 213.726 178.206 213.381 177.868 213.083C177.708 212.925 177.59 212.729 177.448 212.554C177.312 212.374 177.167 212.199 177.079 211.988C176.196 210.39 176.093 208.449 176.435 206.655C176.053 208.439 176.102 210.393 176.965 212.051C177.051 212.269 177.195 212.452 177.33 212.64C177.47 212.823 177.588 213.028 177.748 213.194C178.086 213.508 178.387 213.871 178.789 214.108C178.98 214.236 179.165 214.378 179.363 214.497L179.985 214.8C180.39 215.03 180.845 215.125 181.278 215.281C183.055 215.784 184.922 215.804 186.737 215.628C188.557 215.446 190.353 215.058 192.105 214.542C195.616 213.51 198.947 211.956 202.159 210.222C205.363 208.462 208.433 206.461 211.355 204.258C214.264 202.038 217.037 199.631 219.599 197.007C222.159 194.388 224.55 191.569 226.499 188.442C227.442 186.861 228.35 185.244 228.957 183.49C229.575 181.755 229.994 179.901 229.846 178.036C229.795 177.103 229.509 176.197 229.119 175.355L228.75 174.763C228.686 174.666 228.631 174.563 228.561 174.471L228.327 174.214L227.859 173.702L227.309 173.281C225.817 172.173 223.944 171.792 222.142 171.741Z" fill="#0973C0"/>
<g opacity="0.1">
<path d="M185.965 232.889C192.731 231.093 200.065 227.825 207.277 223.584C215.07 219.01 222.716 213.319 229.353 207.149C235.496 201.44 240.77 195.322 244.478 189.314C246.222 186.48 247.595 183.73 248.549 181.15C252.044 171.704 249.558 166.119 246.854 163.088C242.299 157.99 233.786 156.774 222.887 159.659C218.216 160.897 213.27 162.839 208.283 165.316C208.683 165.388 209.086 165.476 209.478 165.568C214.129 163.315 218.72 161.544 223.076 160.387C233.69 157.569 241.938 158.708 246.311 163.594C248.868 166.464 251.221 171.792 247.856 180.887C246.917 183.426 245.571 186.123 243.85 188.917C240.426 194.456 235.661 200.095 230.096 205.416C222.819 212.398 214.179 218.833 205.428 223.795C198.757 227.577 192.024 230.505 185.783 232.164C175.16 234.986 166.912 233.846 162.548 228.957C159.981 226.09 157.639 220.759 160.998 211.677C161.94 209.132 163.288 206.428 165.016 203.637C167.394 199.772 170.427 195.867 173.925 192.051C173.956 191.648 173.997 191.239 174.044 190.833C170.229 194.906 166.94 199.097 164.388 203.239C162.635 206.078 161.265 208.821 160.304 211.415C156.812 220.854 159.298 226.44 161.998 229.461C166.551 234.566 175.071 235.784 185.965 232.889Z" fill="#0973C0"/>
</g>
<g opacity="0.2">
<path d="M186.756 229.269C192.183 227.828 197.998 225.356 203.801 222.175C212.79 217.238 221.726 210.578 229.061 203.357C233.786 198.703 237.849 193.813 240.823 188.999C242.408 186.419 243.655 183.929 244.519 181.593C247.554 173.389 245.479 168.637 243.204 166.088C239.288 161.703 231.795 160.711 222.1 163.289C218.287 164.298 214.284 165.821 210.231 167.736C210.564 167.818 210.905 167.917 211.235 168.027C215.007 166.289 218.722 164.906 222.274 163.963C231.705 161.458 238.956 162.38 242.688 166.561C244.832 168.962 246.779 173.479 243.869 181.348C243.022 183.637 241.795 186.09 240.234 188.627C237.481 193.082 233.783 197.608 229.485 201.951C221.739 209.781 212.028 217.011 202.335 222.169C196.963 225.026 191.603 227.249 186.579 228.587C177.148 231.092 169.897 230.17 166.171 225.992C164.018 223.594 162.077 219.08 164.985 211.218C165.837 208.915 167.061 206.469 168.631 203.928C170.566 200.783 172.972 197.606 175.727 194.486C175.725 194.133 175.731 193.775 175.75 193.422C172.741 196.768 170.122 200.179 168.043 203.555C166.445 206.13 165.202 208.63 164.335 210.971C161.305 219.162 163.378 223.921 165.655 226.464C169.565 230.846 177.057 231.837 186.756 229.269Z" fill="#0973C0"/>
</g>
<g opacity="0.4">
<path d="M187.133 226.634C191.598 225.452 196.344 223.527 201.115 221.058C211.019 215.946 221.028 208.491 228.796 200.439C232.544 196.56 235.779 192.545 238.229 188.577C239.707 186.178 240.859 183.871 241.658 181.712C244.335 174.476 242.587 170.373 240.651 168.201C237.249 164.393 230.525 163.583 221.727 165.918C218.563 166.758 215.255 167.967 211.9 169.475C212.204 169.576 212.504 169.689 212.799 169.816C215.902 168.449 218.961 167.354 221.898 166.573C230.445 164.301 236.93 165.043 240.162 168.657C241.973 170.688 243.595 174.556 241.035 181.476C240.252 183.591 239.121 185.862 237.665 188.219C235.395 191.895 232.452 195.618 229.038 199.228C220.983 207.768 210.337 215.695 199.886 220.939C195.473 223.155 191.095 224.888 186.96 225.986C178.409 228.249 171.924 227.507 168.698 223.896C166.887 221.865 165.265 217.997 167.821 211.089C168.606 208.967 169.74 206.69 171.202 204.335C172.805 201.732 174.749 199.113 176.953 196.521C176.929 196.203 176.913 195.88 176.903 195.559C174.485 198.344 172.363 201.176 170.637 203.978C169.153 206.374 167.998 208.687 167.197 210.853C164.523 218.083 166.267 222.176 168.203 224.349C171.605 228.156 178.326 228.972 187.133 226.634Z" fill="#0973C0"/>
</g>
<g opacity="0.5">
<path d="M186.789 225.331C190.616 224.317 194.653 222.751 198.734 220.761C209.676 215.422 220.928 207.049 229.215 198.057C232.313 194.702 235.001 191.264 237.1 187.861C238.544 185.515 239.651 183.292 240.417 181.221C242.199 176.403 242.128 172.424 240.131 169.681C237.276 165.764 230.86 164.89 222.062 167.225C219.347 167.947 216.531 168.94 213.663 170.172C213.937 170.297 214.211 170.423 214.485 170.548C217.127 169.446 219.726 168.537 222.234 167.874C230.747 165.618 236.913 166.397 239.592 170.082C242.277 173.769 241.19 179.958 236.535 187.503C234.598 190.643 232.155 193.821 229.346 196.933C220.857 206.338 209.032 215.143 197.633 220.546C193.87 222.332 190.16 223.742 186.626 224.679C178.11 226.941 171.941 226.153 169.262 222.469C167.409 219.917 167.358 216.169 169.049 211.598C169.802 209.564 170.897 207.373 172.334 205.046C173.705 202.822 175.323 200.584 177.147 198.366C177.109 198.064 177.072 197.761 177.036 197.453C175.031 199.854 173.25 202.282 171.769 204.688C170.317 207.038 169.198 209.271 168.43 211.349C166.653 216.154 166.733 220.129 168.723 222.869C171.584 226.787 177.998 227.668 186.789 225.331Z" fill="#0973C0"/>
</g>
<g opacity="0.5">
<path d="M221.379 105.547C218.799 105.547 216.239 104.923 213.885 103.69C209.983 101.647 207.113 98.1858 205.802 93.9458C203.115 85.2492 207.923 75.9626 216.52 73.2436C220.657 71.9354 225.057 72.3237 228.907 74.34C232.809 76.3834 235.679 79.8441 236.99 84.0847C239.677 92.7807 234.869 102.068 226.271 104.787C224.664 105.295 223.018 105.547 221.379 105.547ZM216.636 73.608C208.238 76.2637 203.542 85.3365 206.168 93.8325C207.448 97.9752 210.252 101.356 214.063 103.352C217.821 105.32 222.116 105.7 226.156 104.423C234.554 101.767 239.25 92.694 236.625 84.1985C235.345 80.0553 232.54 76.6744 228.73 74.6794C224.971 72.711 220.675 72.3306 216.636 73.608Z" fill="#E0E0E0"/>
</g>
<g opacity="0.4">
<path d="M221.378 106.745C218.611 106.745 215.866 106.075 213.341 104.753C209.157 102.562 206.079 98.8503 204.673 94.3022C201.79 84.9762 206.947 75.0167 216.167 72.1008C220.604 70.6979 225.322 71.1155 229.452 73.2776C233.635 75.4683 236.713 79.1801 238.119 83.7276C241.002 93.0536 235.846 103.014 226.625 105.93C224.901 106.474 223.135 106.745 221.378 106.745ZM216.282 72.4652C207.262 75.3178 202.217 85.0635 205.038 94.1889C206.413 98.6391 209.425 102.271 213.518 104.414C217.556 106.529 222.168 106.936 226.509 105.565C235.53 102.712 240.574 92.9658 237.753 83.8404C236.378 79.3908 233.367 75.7599 229.273 73.6159C225.236 71.5012 220.621 71.0932 216.282 72.4652Z" fill="#E0E0E0"/>
</g>
<g opacity="0.2">
<path d="M221.376 108.223C218.379 108.223 215.405 107.497 212.67 106.065C208.137 103.691 204.802 99.6701 203.279 94.7432C200.157 84.6395 205.744 73.8495 215.732 70.6905C220.539 69.1705 225.65 69.6227 230.124 71.9646C234.657 74.3384 237.991 78.3592 239.514 83.2861C242.637 93.3898 237.05 104.18 227.061 107.339C225.194 107.93 223.28 108.223 221.376 108.223ZM221.417 70.1899C219.551 70.1899 217.677 70.4766 215.847 71.0554C206.058 74.1506 200.584 84.7268 203.644 94.6299C205.137 99.4589 208.405 103.399 212.847 105.726C217.228 108.021 222.236 108.464 226.945 106.975C236.735 103.879 242.208 93.3037 239.147 83.4005C237.655 78.571 234.387 74.631 229.945 72.3045C227.266 70.9011 224.352 70.1899 221.417 70.1899Z" fill="#E0E0E0"/>
</g>
<g opacity="0.1">
<path d="M221.374 110.061C218.09 110.061 214.832 109.266 211.835 107.697C206.868 105.097 203.214 100.691 201.545 95.2918C198.123 84.2209 204.244 72.3982 215.189 68.937C220.456 67.2713 226.056 67.7672 230.958 70.3335C235.925 72.9345 239.579 77.34 241.248 82.7382C244.669 93.8096 238.548 105.632 227.602 109.093C225.556 109.74 223.46 110.061 221.374 110.061ZM215.305 69.3015C204.559 72.6999 198.551 84.3081 201.911 95.1785C203.549 100.48 207.136 104.806 212.012 107.359C216.821 109.877 222.317 110.363 227.487 108.729C238.232 105.331 244.241 93.7224 240.882 82.8515C239.244 77.5507 235.656 73.225 230.78 70.6719C225.97 68.1523 220.474 67.6672 215.305 69.3015Z" fill="#E0E0E0"/>
</g>
<path d="M216.921 74.5326C224.827 72.0322 233.241 76.4893 235.713 84.4874C238.185 92.4855 233.779 100.997 225.872 103.497C217.965 105.998 209.551 101.541 207.08 93.5426C204.608 85.5439 209.014 77.033 216.921 74.5326Z" fill="#E0E0E0"/>
<path opacity="0.1" d="M229.991 89.5169C228.616 89.0418 226.927 89.3786 226.03 90.5346C225.625 91.057 225.379 91.7252 224.844 92.1088C224.026 92.6945 222.871 92.378 222.031 91.8253C221.191 91.273 220.477 90.5054 219.544 90.1356C218.713 89.8058 217.749 89.8334 216.937 90.2101C216.654 90.3415 216.383 90.5192 216.203 90.7767C215.741 91.438 216.021 92.3455 216.315 93.0989C216.725 94.1474 217.135 95.196 217.545 96.2451C217.871 97.0782 218.18 98.0832 217.668 98.8152C217.381 99.2254 216.896 99.4414 216.538 99.7893C215.706 100.598 215.72 102.024 216.319 103.022C216.393 103.146 216.475 103.264 216.562 103.377C219.472 104.383 222.712 104.497 225.873 103.498C229.529 102.342 232.435 99.8983 234.26 96.8165C234.254 96.7766 234.249 96.7367 234.243 96.6968C234.026 95.2434 233.739 93.7782 233.086 92.4652C232.432 91.1517 231.366 89.992 229.991 89.5169Z" fill="black"/>
<path opacity="0.1" d="M232.67 86.0631C232.806 85.4237 232.702 84.7565 232.55 84.1208C232.096 82.2226 231.038 80.2686 229.209 79.6461C228.445 79.386 227.565 79.3626 226.949 78.8364C226.343 78.3183 226.165 77.4458 226.169 76.643C226.172 75.9807 226.27 75.3151 226.24 74.656C223.327 73.6478 220.084 73.5319 216.921 74.5326C213.552 75.5982 210.822 77.7559 208.986 80.4989C209.558 80.9809 210.249 81.3108 210.992 81.4001C212.466 81.5773 214.058 80.94 215.393 81.5949C217.398 82.5785 217.396 85.7163 219.253 86.9627C220.548 87.832 222.273 87.4719 223.753 86.992C225.233 86.5127 226.836 85.9429 228.296 86.4818C229.377 86.8813 230.404 87.8741 231.498 87.5155C232.114 87.3139 232.534 86.7031 232.67 86.0631Z" fill="black"/>
<path opacity="0.1" d="M211.381 89.8159C210.959 88.505 211.417 87.0144 210.928 85.7275C210.403 84.3443 208.995 83.6378 207.541 83.2052C206.24 86.3765 205.987 90.009 207.08 93.5425C207.74 95.6806 208.829 97.5629 210.216 99.1296C210.996 99.1163 211.772 98.986 212.513 98.713C213.863 98.2156 215.174 97.1037 215.209 95.6503C215.238 94.4555 214.408 93.4266 213.558 92.5966C212.707 91.7667 211.748 90.9528 211.381 89.8159Z" fill="black"/>
<path opacity="0.1" d="M219.121 74.015C224.742 73.4117 232.585 81.5311 231.7 90.3064C230.759 99.6366 220.239 104.665 214.007 102.213L214.002 102.215C217.488 104.212 221.749 104.801 225.873 103.497C233.78 100.996 238.186 92.485 235.714 84.4869C233.47 77.2283 226.332 72.8866 219.121 74.015Z" fill="black"/>
<path opacity="0.1" d="M225.873 103.497C233.78 100.997 238.186 92.4855 235.713 84.4874C234.105 79.2828 229.981 75.5785 225.118 74.3139C225.723 74.4805 233.358 76.5622 234.656 87.2676C236.007 98.4119 225.876 103.495 223.573 104.029C224.34 103.915 225.109 103.739 225.873 103.497Z" fill="black"/>
<path opacity="0.4" d="M217.045 80.3362C216.658 79.085 215.342 78.388 214.105 78.7791C212.868 79.1701 212.179 80.5017 212.566 81.7529C212.953 83.0042 214.269 83.7011 215.506 83.3101C216.743 82.9191 217.432 81.5875 217.045 80.3362ZM211.068 84.4725C208.942 85.145 207.757 87.4342 208.422 89.585C209.086 91.7359 211.349 92.9345 213.476 92.2621C215.602 91.5896 216.787 89.301 216.122 87.1496C215.457 84.9992 213.194 83.8001 211.068 84.4725ZM218.63 83.7565C217.656 84.0645 217.114 85.1131 217.418 86.0983C217.722 87.0836 218.759 87.6321 219.733 87.3246C220.707 87.0165 221.249 85.9685 220.945 84.9832C220.641 83.9974 219.604 83.449 218.63 83.7565Z" fill="white"/>
<g opacity="0.2">
<path d="M226.105 80.5841C225.028 80.9246 222.662 80.8304 222.043 79.9212C221.825 79.6004 221.73 79.0562 222.517 78.2848C223.425 77.3926 225.806 77.7262 226.734 78.6242C227.224 79.0987 227.248 79.6637 226.799 80.1755C226.667 80.3271 226.495 80.4197 226.33 80.4979C226.264 80.5293 226.188 80.558 226.105 80.5841ZM223.338 78.2465C223.117 78.3167 222.926 78.4199 222.781 78.5614C222.303 79.0307 222.16 79.4148 222.356 79.7036C222.876 80.4671 225.288 80.5618 226.169 80.15C226.297 80.0893 226.427 80.0202 226.514 79.9207C226.825 79.5658 226.811 79.2328 226.47 78.903C225.819 78.2715 224.298 77.9432 223.338 78.2465Z" fill="black"/>
</g>
<g opacity="0.2">
<path d="M224.954 101.582C224.366 101.767 223.815 101.825 223.312 101.752C222.608 101.65 222.004 101.287 221.657 100.755C221.196 100.05 221.253 99.2812 221.808 98.6976C222.153 98.3353 222.668 98.0752 223.219 97.9858C223.942 97.8688 225.174 98.3534 225.855 99.0232C226.271 99.4323 226.461 99.876 226.405 100.307C226.339 100.812 225.909 101.235 225.195 101.499C225.114 101.529 225.034 101.557 224.954 101.582ZM222.946 98.4449C222.605 98.5524 222.301 98.7343 222.082 98.9647C221.83 99.2301 221.48 99.7872 221.974 100.544C222.257 100.977 222.778 101.287 223.366 101.372C223.874 101.445 224.446 101.366 225.064 101.138C225.397 101.014 225.964 100.737 226.027 100.257C226.077 99.8712 225.817 99.5233 225.589 99.2993C224.936 98.6567 223.831 98.2768 223.279 98.3656C223.166 98.3843 223.054 98.4109 222.946 98.4449Z" fill="black"/>
</g>
<path d="M227.669 88.3385C227.661 88.3433 227.652 88.3481 227.644 88.3524C226.761 88.8599 227.101 89.8824 226.973 90.7192C226.939 90.9358 226.917 91.164 226.992 91.3699C227.136 91.763 227.611 91.954 228.02 91.8822C228.428 91.8104 228.772 91.5343 229.055 91.2278C229.463 90.7852 229.791 90.2303 229.815 89.6254C229.867 88.2885 228.742 87.7411 227.669 88.3385ZM226.104 85.7307C225.746 84.1591 223.696 82.3211 221.996 82.5073C220.209 82.7025 218.748 85.4907 219.246 87.1309C219.499 87.963 220.284 88.5466 221.118 88.7594C221.953 88.9716 222.833 88.8679 223.677 88.6971C224.559 88.5189 225.519 88.1992 225.951 87.4012C226.224 86.9 226.231 86.2882 226.104 85.7307ZM211.559 89.7308C211.107 89.7483 210.659 90.0979 210.763 90.6251C210.859 91.1182 211.455 91.4497 211.908 91.2427C212.323 91.0539 212.497 90.4639 212.252 90.0761C212.094 89.8249 211.825 89.7202 211.559 89.7308ZM216.142 97.7081C216.001 97.6821 215.849 97.6975 215.712 97.7422C215.251 97.8927 214.768 98.4939 215.349 98.8913C215.525 99.0115 215.757 99.0062 215.965 98.9631C216.45 98.8636 216.958 98.2189 216.4 97.8151C216.322 97.7597 216.234 97.7252 216.142 97.7081Z" fill="#E0E0E0"/>
<path opacity="0.2" d="M227.669 88.3385C227.661 88.3433 227.652 88.3481 227.644 88.3524C226.761 88.8599 227.101 89.8824 226.973 90.7192C226.939 90.9358 226.917 91.164 226.992 91.3699C227.136 91.763 227.611 91.954 228.02 91.8822C228.428 91.8104 228.772 91.5343 229.055 91.2278C229.463 90.7852 229.791 90.2303 229.815 89.6254C229.867 88.2885 228.742 87.7411 227.669 88.3385ZM226.104 85.7307C225.746 84.1591 223.696 82.3211 221.996 82.5073C220.209 82.7025 218.748 85.4907 219.246 87.1309C219.499 87.963 220.284 88.5466 221.118 88.7594C221.953 88.9716 222.833 88.8679 223.677 88.6971C224.559 88.5189 225.519 88.1992 225.951 87.4012C226.224 86.9 226.231 86.2882 226.104 85.7307ZM211.559 89.7308C211.107 89.7483 210.659 90.0979 210.763 90.6251C210.859 91.1182 211.455 91.4497 211.908 91.2427C212.323 91.0539 212.497 90.4639 212.252 90.0761C212.094 89.8249 211.825 89.7202 211.559 89.7308ZM216.142 97.7081C216.001 97.6821 215.849 97.6975 215.712 97.7422C215.251 97.8927 214.768 98.4939 215.349 98.8913C215.525 99.0115 215.757 99.0062 215.965 98.9631C216.45 98.8636 216.958 98.2189 216.4 97.8151C216.322 97.7597 216.234 97.7252 216.142 97.7081Z" fill="black"/>
<path d="M140.863 156.052C136.959 147.141 131.766 138.628 131.766 138.628L82.1062 147.396C81.937 154.458 83.092 160.589 87.9678 167.09C89.3499 168.933 90.9853 170.858 92.6558 172.706C91.9546 174.442 91.1183 177.361 91.3348 181.116C91.6944 187.358 94.1661 189.744 94.1661 189.744C94.1661 189.744 94.8806 189.689 97.1187 189.622C96.6958 190.32 96.2984 191.048 95.9558 191.806C93.6889 196.829 90.9034 203.447 90.9034 203.447C90.9034 203.447 92.0631 208.354 96.0691 211.07C100.075 213.786 103.519 212.926 103.519 212.926C103.519 212.926 117.193 199.746 121.129 196.119C123.766 193.69 126.943 190.091 127.526 188.73C134.454 187.905 139.629 184.288 141.677 181.406C145.333 176.262 145.233 166.028 140.863 156.052Z" fill="#F0F0F0"/>
<path d="M95.1003 206.038L93.5682 205.522C94.5811 202.441 98.5376 192.279 102.321 186.795C105.703 181.892 106.137 181.262 99.243 173.537C92.0318 165.457 87.3385 156.706 87.2869 151.244L88.902 151.228C88.9504 156.314 93.4793 164.641 100.442 172.442C107.399 180.239 107.728 181.81 103.645 187.729C100.01 193.001 96.0548 203.138 95.1003 206.038Z" fill="#E0E0E0"/>
<path d="M127.526 188.731C130.587 181.135 128.367 174.219 126.087 169.448C123.806 164.677 120.42 160.115 120.42 160.115C120.42 160.115 127.704 156.022 129.466 150.422C130.11 155.77 124.913 161.187 124.913 161.187C124.913 161.187 135.447 178.109 127.526 188.731Z" fill="#E0E0E0"/>
<path d="M100.145 184.948C99.2675 186.049 98.1593 187.626 97.1309 189.603C97.0001 189.61 96.8761 189.623 96.7516 189.636L96.6921 189.639C94.6939 189.806 93.1569 190.021 92.4717 190.468C91.0779 191.374 89.1786 196.952 88.2497 200.7C87.315 204.455 82.9978 205.602 80.133 204.575C77.2687 203.554 73.7017 196.281 75.528 191.021C77.3602 185.76 79.8463 184.904 80.0011 181.6C80.1495 178.297 80.4155 176.096 82.194 174.242C86.1074 172.664 86.5255 174.058 90.2181 172.697C90.773 172.493 91.3731 172.237 91.9897 171.951L98.0992 178.877C98.4987 181.373 99.293 183.463 100.145 184.948Z" fill="#455A64"/>
<path d="M92.6558 172.706L101.813 183.081C101.813 183.081 99.2866 185.441 97.1192 189.623L95.9563 189.661C95.9563 189.661 96.7378 184.834 99.2276 183.046L92.6558 172.706Z" fill="#37474F"/>
<path d="M110.192 206.514L109.031 207.627C102.018 207.34 94.7034 199.472 93.9283 196.391L94.5582 194.95C92.9728 194.144 90.5948 201.47 88.1768 205.251C86.0414 208.591 84.8758 207.738 82.6994 211.383C82.3924 213.948 83.4926 215.866 85.3434 218.591C87.1942 221.316 85.7249 223.517 87.4065 228.829C89.0882 234.142 96.2733 237.757 99.1674 236.824C102.062 235.892 104.818 232.337 103.324 228.778C101.83 225.22 100.01 219.616 100.581 218.042C101.153 216.468 105.016 213.176 108.76 209.556C111.337 207.065 110.192 206.514 110.192 206.514Z" fill="#455A64"/>
<path d="M115.907 99.0612C123.903 97.0476 128.478 102.326 134.793 102.456C141.693 102.598 144.393 100.227 147.01 94.8323C151.709 92.1202 157.379 95.0866 158.378 97.8121C157.536 110.576 150.795 116.33 142.94 119.383C135.506 122.272 126.117 121.298 120.844 119.493C113.487 111.449 114.48 102.531 115.907 99.0612Z" fill="#E0E0E0"/>
<path d="M145.908 87.9408C146.329 88.4138 146.613 88.9952 147.02 89.4804C147.333 89.8534 147.717 90.1656 148.143 90.3949C148.421 90.5439 148.719 90.6599 148.963 90.8583C149.561 91.3424 149.27 91.8234 148.963 92.3756C148.417 93.3582 147.819 94.3078 147.227 95.2617C147.409 96.2108 149.154 97.5003 150.507 98.0499C153.258 99.1687 156.924 99.3815 158.045 98.0791C158.611 95.9187 158.938 93.1693 159.122 90.9456C159.195 90.0523 159.218 89.1405 158.997 88.2723C158.82 87.5769 158.491 86.93 158.122 86.3161C156.835 84.1737 154.962 82.3218 152.64 81.443C150.319 80.5641 147.531 80.7774 145.575 82.3171C145.131 82.6671 144.685 83.0991 144.123 83.1299C143.436 83.1672 142.803 82.7379 142.079 82.7756C141.309 82.8161 140.547 83.1113 139.973 83.6369C139.804 83.7923 139.647 83.9694 139.561 84.1838C139.236 84.985 139.982 85.3244 140.6 85.6022C141.493 86.0027 142.459 86.2007 143.391 86.4954C144.323 86.7912 145.255 87.2072 145.908 87.9408Z" fill="#455A64"/>
<path d="M147.01 94.8329C146.244 96.3134 143.806 99.8512 140.79 101.092C140.29 104.462 146.924 112.276 154.361 111.459C156.327 108.732 158.779 103.434 158.377 97.8126C154.555 99.7927 148.058 97.9493 147.01 94.8329Z" fill="#0973C0"/>
<path d="M168.227 125.313C168.788 126.512 166.152 127.772 165.591 126.573L128.664 47.5461C128.161 46.4688 130.797 45.2085 131.3 46.2858L168.227 125.313Z" fill="#E0E0E0"/>
<path d="M155.262 44.9366C147.086 50.8599 139.518 40.4151 131.09 47.7264L138.776 63.9615C143.213 57.3961 153.165 62.0473 158.925 54.586C163.221 49.0218 162.158 43.9604 165.069 41.2983C165.405 40.9913 165.176 40.4183 164.724 40.4146C160.946 40.3843 158.508 42.5857 155.262 44.9366Z" fill="#0973C0"/>
<path opacity="0.5" d="M142.921 48.3282L144.688 50.2865L147.284 49.9236C147.792 49.8529 148.16 50.4019 147.907 50.8525L146.612 53.1577L147.755 55.5437C147.978 56.0103 147.576 56.5337 147.074 56.4295L144.507 55.8964L142.617 57.7334C142.247 58.093 141.631 57.8675 141.574 57.352L141.282 54.717L138.971 53.4668C138.518 53.222 138.54 52.5592 139.007 52.3448L141.394 51.2494L141.855 48.6394C141.945 48.1297 142.575 47.9451 142.921 48.3282Z" fill="white"/>
<path d="M153.391 78.9203C153.078 78.8213 152.786 78.6942 152.524 78.4601C152.056 78.0404 151.648 77.5552 151.174 77.1413C150.674 76.7061 150.15 76.2773 149.529 76.0517C149.058 75.8804 148.553 75.8347 148.053 75.8076C146.577 75.7283 145.064 75.8283 143.969 76.954C143.625 77.3083 143.31 77.6914 143.029 78.0989C142.777 78.4649 142.557 78.8527 142.348 79.2459C142.146 79.6273 141.959 79.9545 141.88 80.3902C141.862 80.4881 141.849 80.5929 141.891 80.6828C141.929 80.7631 142.004 80.8179 142.08 80.8616C142.601 81.1616 143.27 81.0887 143.805 80.8163C144.675 80.3742 145.164 79.4284 146.11 79.1092C146.526 78.9692 146.979 78.9575 147.404 79.0602C147.724 79.1379 148.27 79.3927 148.377 79.7672C147.736 79.9545 147.077 80.0141 146.45 80.2694C145.92 80.4849 145.308 80.8307 144.986 81.3271C144.634 81.8692 144.441 82.515 144.29 83.1385C144.138 83.7673 144.031 84.4467 144.245 85.0745C144.325 85.3075 144.453 85.5309 144.647 85.6804C144.841 85.8299 145.109 85.8948 145.337 85.806C145.298 86.2539 145.66 86.6641 146.084 86.7987C146.508 86.9333 146.971 86.8455 147.39 86.6949C147.735 86.571 148.065 86.405 148.371 86.2023C148.233 86.4656 148.213 86.7891 148.317 87.0679C148.546 87.6786 149.305 87.8515 149.875 87.9547C150.559 88.0787 151.256 88.1276 151.95 88.0999C151.884 89.6949 152.964 91.1691 154.332 91.9633C155.701 92.7576 157.316 92.9853 158.891 93.0805C159.289 90.221 159.403 87.2456 158.508 84.5031C158.328 83.953 158.089 83.4567 157.8 82.9592C157.591 82.6012 157.269 82.3501 157.073 81.9862C156.97 81.7973 156.9 81.5893 156.773 81.4164C156.459 80.9892 155.862 80.8536 155.545 80.4285C155.403 80.2381 155.329 80.0034 155.195 79.8071C154.922 79.4055 154.438 79.2124 153.973 79.0836C153.775 79.0283 153.579 78.9793 153.391 78.9203Z" fill="#455A64"/>
<path d="M143.97 76.954C143.15 77.8616 142.516 78.9543 142.058 80.0811C142 80.2955 141.911 80.5902 142.026 80.6828C142.357 80.9408 142.884 80.9823 143.319 80.8546C144.299 80.5934 144.783 79.6252 145.654 79.1198C146.116 78.8463 146.673 78.7484 147.203 78.8181C147.762 78.9144 148.34 79.1038 148.583 79.7081C148.622 79.8215 148.554 79.9449 148.438 79.9731C147.315 80.2651 146.199 80.3806 145.386 81.1993C144.714 82.0053 144.453 83.2247 144.372 84.2573C144.344 84.7941 144.615 85.7442 145.255 85.5761C145.38 85.5288 145.519 85.5915 145.566 85.716C145.624 87.1567 147.46 86.5752 148.246 86.0129C148.433 85.8756 148.687 86.1113 148.572 86.306C147.933 87.9361 150.956 87.8765 151.95 87.9105C152.058 87.9073 152.147 87.9994 152.14 88.1068C152.09 91.5595 155.971 92.9475 158.893 93.08C155.819 93.1427 151.785 91.7484 151.764 88.0914L151.959 88.2877C150.584 88.3377 147.336 88.2765 148.171 86.0969L148.497 86.3901C147.931 86.7545 147.329 87.0423 146.639 87.0966C145.903 87.1732 145.04 86.6268 145.095 85.7846L145.426 86.0331C144.889 86.2331 144.37 85.8788 144.162 85.4889C143.734 84.727 143.869 83.845 144.062 83.0608C144.267 82.2846 144.482 81.4935 145.057 80.8764C145.913 79.9965 147.242 79.8204 148.318 79.5608L148.172 79.8257C147.754 79.0868 146.525 79.0362 145.83 79.4315C144.992 79.9007 144.409 80.8956 143.389 81.1206C142.883 81.2408 142.305 81.2185 141.863 80.8344C141.558 80.3923 142.018 79.7454 142.21 79.3405C142.713 78.4872 143.235 77.6296 143.97 76.954Z" fill="#37474F"/>
<path d="M152.239 79.282C151.576 79.1447 150.875 79.1799 150.203 79.2112C149.853 79.2277 149.505 79.2756 149.158 79.3272C148.967 79.3559 148.778 79.3884 148.589 79.4267C148.446 79.456 148.291 79.4725 148.165 79.5533C148.032 79.6384 148.103 79.7917 148.211 79.8858C148.197 79.88 148.216 79.8949 148.231 79.9066C148.234 79.9092 148.237 79.9129 148.241 79.9156C148.249 79.922 148.241 79.9177 148.252 79.9257C148.278 79.9433 148.307 79.9539 148.338 79.9592C148.341 79.9603 148.346 79.9587 148.35 79.9592C148.355 79.9598 148.36 79.9656 148.366 79.9656C148.359 79.9619 148.36 79.9624 148.353 79.9592C148.427 79.9752 148.504 79.972 148.577 79.9624C148.739 79.9417 148.9 79.9055 149.061 79.8784C149.539 79.7986 150.017 79.7257 150.494 79.6491C151.079 79.5554 151.683 79.5187 152.257 79.3735C152.295 79.3639 152.269 79.2884 152.239 79.282Z" fill="#37474F"/>
<path d="M153.435 82.5076C153.164 82.2985 152.841 82.232 152.517 82.1463C152.143 82.0469 151.758 81.949 151.373 81.9064C150.618 81.8229 149.856 81.9197 149.124 82.1155C148.393 82.3102 147.689 82.6145 147.066 83.0497C146.258 83.6125 145.913 84.4265 145.47 85.2809C145.432 85.3538 145.554 85.5378 145.624 85.4511C146.176 84.7712 146.664 84.0365 147.402 83.5487C148.034 83.1311 148.737 82.8124 149.468 82.6214C150.14 82.4453 150.833 82.3943 151.524 82.381C151.86 82.374 152.182 82.3751 152.516 82.4246C152.82 82.4698 153.128 82.6204 153.437 82.5922C153.47 82.5879 153.451 82.5198 153.435 82.5076Z" fill="#37474F"/>
<path d="M152.931 84.5882C152.766 84.4584 152.51 84.4126 152.308 84.377C152.12 84.3435 151.918 84.353 151.727 84.361C151.302 84.378 150.885 84.4605 150.479 84.586C149.793 84.7978 149.182 85.1494 148.762 85.7522C148.735 85.791 148.708 85.8384 148.723 85.8831C148.727 85.8942 148.734 85.9054 148.746 85.9091C148.759 85.9134 148.774 85.9065 148.786 85.899C148.98 85.7884 149.174 85.6777 149.369 85.5671C149.535 85.4724 149.7 85.4069 149.871 85.3255C150.21 85.1638 150.561 85.0313 150.926 84.9425C151.279 84.8574 151.643 84.8063 152.005 84.7861C152.203 84.7749 152.394 84.7701 152.59 84.7425C152.712 84.7254 152.84 84.7568 152.943 84.6802C152.97 84.6611 152.952 84.6047 152.931 84.5882Z" fill="#37474F"/>
<path d="M82.1648 145.361C81.4583 147.196 82.5271 149.754 86.4011 151.562C90.2752 153.369 96.441 154.798 106.913 153.295C115.901 152.004 123.569 148.818 127.971 144.842C130.339 142.703 132.939 138.984 131.2 137.07L82.1648 145.361Z" fill="#455A64"/>
<path d="M131.2 137.07C130.076 140.937 123.676 147.688 108.186 150.295C92.9755 152.855 81.1933 148.527 81.3072 143.392C81.3785 135.53 76.7197 130.055 75.1423 121.464C73.3772 111.85 76.5926 106.478 76.5926 106.478C91.4912 97.2374 114.94 99.9953 119.767 99.3569C125.612 103.193 128.848 107.961 128.593 121.051C128.477 127.029 132.188 128.897 131.2 137.07Z" fill="#F0F0F0"/>
<path d="M126.674 123.222C126.621 122.473 126.361 121.98 125.978 121.73L125.99 121.718L123.198 119.932C123.198 119.932 123.189 119.943 123.187 119.945C122.708 119.635 122.031 119.714 121.269 120.25C116.405 123.674 110.444 125.883 103.012 127.479C101.378 127.83 100.162 129.436 100.306 131.12L101.014 139.325C101.094 140.257 101.578 141.03 102.271 141.48V141.482L105.092 143.286C105.646 143.633 106.328 143.775 107.045 143.63C114.374 142.143 120.866 139.422 125.079 136.635C126.477 135.71 127.404 133.442 127.284 131.756L126.674 123.222Z" fill="#0973C0"/>
<path opacity="0.2" d="M100.306 131.119L101.014 139.324C101.094 140.257 101.578 141.03 102.271 141.479V141.481L105.092 143.286C105.168 143.334 105.252 143.367 105.333 143.407L104.727 131.853L100.749 129.189C100.422 129.769 100.248 130.435 100.306 131.119Z" fill="black"/>
<path d="M124.058 122.033C119.194 125.458 113.232 127.666 105.801 129.262C104.167 129.614 102.95 131.219 103.095 132.903L103.802 141.108C103.947 142.792 105.407 143.962 107.045 143.63C114.374 142.143 120.866 139.422 125.078 136.635C126.477 135.71 127.404 133.441 127.284 131.755L126.673 123.222C126.554 121.536 125.43 121.068 124.058 122.033Z" fill="#0973C0"/>
<path opacity="0.3" d="M124.058 122.033C119.194 125.458 113.232 127.666 105.801 129.262C104.167 129.614 102.95 131.219 103.095 132.903L103.802 141.108C103.947 142.792 105.407 143.962 107.045 143.63C114.374 142.143 120.866 139.422 125.078 136.635C126.477 135.71 127.404 133.441 127.284 131.755L126.673 123.222C126.554 121.536 125.43 121.068 124.058 122.033Z" fill="white"/>
<path d="M107.409 141.737C107.39 141.479 107.38 141.222 107.354 140.964C107.332 140.751 107.302 140.538 107.286 140.325C107.212 139.348 107.129 138.372 107.038 137.397C106.949 136.447 106.852 135.498 106.746 134.55C106.688 134.026 106.621 133.503 106.553 132.98C106.481 132.439 106.438 131.844 106.246 131.334C106.152 131.083 105.61 131.049 105.588 131.365C105.521 132.316 105.733 133.334 105.835 134.279C105.935 135.202 106.037 136.124 106.126 137.048C106.213 137.946 106.293 138.846 106.365 139.746C106.401 140.196 106.435 140.646 106.467 141.097C106.49 141.415 106.417 141.951 106.686 142.177C106.857 142.322 107.088 142.348 107.276 142.208C107.391 142.122 107.425 142.036 107.419 141.887C107.418 141.869 107.417 141.851 107.415 141.833C107.413 141.802 107.411 141.77 107.409 141.737ZM110.052 140.992C110.035 140.734 110.023 140.476 109.997 140.218C109.976 140.006 109.946 139.793 109.929 139.58C109.855 138.603 109.772 137.627 109.681 136.652C109.592 135.702 109.495 134.753 109.39 133.805C109.332 133.281 109.265 132.758 109.196 132.235C109.125 131.694 109.082 131.099 108.89 130.588C108.795 130.338 108.254 130.304 108.232 130.62C108.164 131.57 108.377 132.589 108.479 133.534C108.579 134.456 108.681 135.379 108.77 136.302C108.857 137.201 108.936 138.101 109.008 139.001C109.044 139.451 109.079 139.901 109.111 140.351C109.134 140.67 109.061 141.205 109.329 141.431C109.501 141.576 109.731 141.602 109.919 141.462C110.035 141.376 110.069 141.29 110.062 141.141C110.062 141.123 110.06 141.105 110.058 141.087C110.056 141.056 110.054 141.024 110.052 140.992ZM112.824 140.277C112.821 140.246 112.819 140.213 112.817 140.181C112.799 139.923 112.788 139.666 112.762 139.408C112.74 139.195 112.71 138.982 112.694 138.769C112.62 137.792 112.537 136.816 112.446 135.842C112.357 134.892 112.26 133.942 112.155 132.994C112.097 132.47 112.03 131.947 111.961 131.424C111.89 130.883 111.847 130.289 111.654 129.778C111.56 129.527 111.019 129.493 110.996 129.809C110.929 130.76 111.142 131.778 111.244 132.724C111.344 133.646 111.445 134.569 111.535 135.492C111.621 136.391 111.701 137.29 111.773 138.19C111.809 138.641 111.843 139.091 111.876 139.541C111.899 139.859 111.826 140.395 112.094 140.621C112.265 140.766 112.496 140.791 112.684 140.651C112.799 140.566 112.833 140.48 112.827 140.331C112.826 140.314 112.825 140.296 112.824 140.277Z" fill="#0973C0"/>
<g opacity="0.2">
<path d="M112.303 139.822C112.285 139.564 112.274 139.306 112.248 139.048C112.226 138.835 112.196 138.622 112.18 138.409C112.106 137.433 112.023 136.457 111.932 135.482C111.843 134.532 111.746 133.583 111.64 132.635C111.582 132.111 111.516 131.588 111.447 131.065C111.383 130.584 111.336 130.063 111.193 129.594C111.088 129.621 111.004 129.69 110.996 129.81C110.928 130.761 111.141 131.779 111.243 132.724C111.343 133.647 111.445 134.569 111.534 135.493C111.621 136.391 111.701 137.291 111.773 138.191C111.809 138.641 111.843 139.091 111.875 139.541C111.892 139.773 111.861 140.117 111.944 140.375C112.021 140.367 112.098 140.345 112.169 140.292C112.284 140.207 112.319 140.121 112.312 139.972C112.312 139.954 112.31 139.936 112.308 139.918C112.307 139.886 112.305 139.853 112.303 139.822Z" fill="black"/>
<path d="M106.894 141.378C106.876 141.12 106.866 140.862 106.839 140.604C106.818 140.391 106.787 140.179 106.771 139.965C106.697 138.989 106.615 138.013 106.523 137.038C106.435 136.087 106.337 135.138 106.232 134.19C106.174 133.666 106.107 133.143 106.038 132.62C105.975 132.139 105.928 131.619 105.784 131.15C105.68 131.177 105.596 131.246 105.588 131.365C105.52 132.316 105.733 133.334 105.835 134.28C105.935 135.202 106.037 136.125 106.126 137.048C106.213 137.947 106.293 138.846 106.364 139.747C106.401 140.197 106.435 140.647 106.467 141.097C106.484 141.329 106.453 141.672 106.536 141.931C106.613 141.923 106.69 141.901 106.761 141.848C106.877 141.763 106.911 141.677 106.904 141.528C106.904 141.51 106.902 141.492 106.901 141.474C106.899 141.442 106.896 141.41 106.894 141.378Z" fill="black"/>
<path d="M109.538 140.632C109.52 140.374 109.509 140.117 109.483 139.859C109.461 139.646 109.431 139.433 109.415 139.22C109.341 138.244 109.258 137.267 109.167 136.293C109.078 135.343 108.981 134.394 108.875 133.446C108.817 132.921 108.751 132.399 108.682 131.876C108.618 131.394 108.572 130.874 108.428 130.405C108.323 130.432 108.24 130.501 108.231 130.621C108.164 131.571 108.376 132.59 108.479 133.535C108.579 134.457 108.68 135.38 108.77 136.303C108.856 137.202 108.936 138.102 109.008 139.002C109.044 139.452 109.078 139.902 109.111 140.352C109.127 140.583 109.096 140.927 109.179 141.186C109.257 141.178 109.334 141.156 109.404 141.103C109.52 141.017 109.554 140.931 109.547 140.783C109.547 140.765 109.545 140.747 109.544 140.729C109.542 140.697 109.54 140.665 109.538 140.632Z" fill="black"/>
</g>
<path d="M118.414 128.338C118.712 128.492 118.909 128.844 118.937 129.359C118.99 130.389 118.341 131.679 117.486 132.242C117.059 132.523 116.661 132.569 116.363 132.416C116.182 132.322 115.495 131.969 115.314 131.876C115.016 131.722 114.819 131.37 114.792 130.855C114.738 129.825 115.387 128.535 116.242 127.972C116.669 127.691 117.067 127.646 117.365 127.799C117.545 127.891 118.233 128.245 118.414 128.338Z" fill="#263238"/>
<path d="M117.486 132.242C117.059 132.523 116.661 132.569 116.363 132.415C116.065 132.262 115.868 131.91 115.841 131.395C115.787 130.365 116.436 129.074 117.291 128.512C117.718 128.231 118.116 128.185 118.414 128.338C118.712 128.492 118.909 128.844 118.937 129.359C118.99 130.389 118.341 131.68 117.486 132.242Z" fill="#455A64"/>
<path d="M124.782 125.542C125.08 125.695 125.277 126.048 125.305 126.563C125.358 127.592 124.709 128.883 123.854 129.445C123.427 129.727 123.029 129.773 122.731 129.619C122.55 129.526 121.863 129.172 121.682 129.079C121.384 128.926 121.187 128.573 121.16 128.058C121.106 127.029 121.755 125.738 122.61 125.176C123.037 124.894 123.435 124.849 123.733 125.002C123.914 125.095 124.602 125.449 124.782 125.542Z" fill="#E0E0E0"/>
<path d="M123.855 129.446C123.428 129.727 123.03 129.773 122.732 129.619C122.434 129.466 122.237 129.114 122.209 128.599C122.156 127.569 122.805 126.278 123.66 125.716C124.087 125.435 124.485 125.389 124.783 125.543C125.081 125.696 125.278 126.048 125.305 126.563C125.359 127.593 124.71 128.884 123.855 129.446Z" fill="#F5F5F5"/>
<path d="M118.753 134.804C119.05 134.957 119.248 135.31 119.275 135.825C119.329 136.855 118.68 138.145 117.825 138.707C117.398 138.989 117 139.035 116.702 138.881C116.521 138.788 115.833 138.434 115.653 138.341C115.355 138.188 115.157 137.836 115.13 137.321C115.076 136.291 115.725 135 116.58 134.438C117.008 134.156 117.405 134.111 117.703 134.264C117.884 134.357 118.572 134.711 118.753 134.804Z" fill="#263238"/>
<path d="M117.825 138.707C117.398 138.988 117 139.035 116.702 138.881C116.404 138.728 116.207 138.376 116.18 137.861C116.126 136.831 116.775 135.54 117.63 134.978C118.057 134.696 118.455 134.65 118.753 134.804C119.051 134.957 119.248 135.31 119.276 135.825C119.329 136.855 118.68 138.145 117.825 138.707Z" fill="#455A64"/>
<path d="M125.121 132.008C125.419 132.161 125.616 132.513 125.643 133.028C125.697 134.058 125.048 135.349 124.193 135.911C123.766 136.193 123.368 136.238 123.07 136.085C122.889 135.992 122.202 135.638 122.021 135.545C121.723 135.392 121.526 135.04 121.499 134.525C121.445 133.495 122.094 132.204 122.949 131.642C123.376 131.361 123.774 131.315 124.072 131.469C124.253 131.561 124.94 131.915 125.121 132.008Z" fill="#263238"/>
<path d="M124.194 135.911C123.767 136.192 123.369 136.238 123.071 136.085C122.773 135.932 122.576 135.579 122.548 135.064C122.495 134.034 123.144 132.744 123.999 132.181C124.426 131.901 124.824 131.854 125.122 132.008C125.42 132.161 125.617 132.513 125.644 133.028C125.698 134.058 125.048 135.349 124.194 135.911Z" fill="#455A64"/>
<path d="M100.572 134.197C96.6453 136.214 83.9751 138.507 79.0845 133.339C78.1497 134.762 78.6541 136.603 80.1394 138.13C81.6248 139.656 85.0296 141.242 89.8798 141.039C97.954 140.699 101.89 138.793 101.89 138.793C101.89 138.793 103.206 138.019 102.746 135.86C102.286 133.702 100.572 134.197 100.572 134.197Z" fill="#455A64"/>
<path d="M81.4577 129.443C78.9759 130.465 74.8236 132.494 72.0966 136.235C68.9509 140.549 68.0592 146.142 70.1426 150.088C65.8514 155.085 61.0289 154.982 58.2423 154.612C52.9127 146.137 52.5695 135.332 55.6647 127.416C58.7599 119.501 63.6405 111.827 76.592 106.478C83.1335 106.276 87.4283 122.868 81.4577 129.443Z" fill="#E0E0E0"/>
<path d="M56.6836 150.282C56.6245 150.387 56.5676 150.496 56.5123 150.607C56.466 150.701 56.4202 150.799 56.4213 150.903C56.4223 151.038 56.4995 151.158 56.575 151.268C57.1874 152.158 57.9077 152.969 58.5179 153.861C59.1281 154.754 59.6351 155.754 59.7426 156.833C59.8883 158.3 59.7442 159.743 60.0123 161.22C60.298 162.793 60.7645 164.325 61.2327 165.85C61.6195 167.11 62.1398 168.058 63.0867 168.963C63.9853 169.822 65.1243 170.376 66.2643 170.825C66.8868 171.071 67.5725 171.113 68.2407 171.14C68.8164 171.164 69.6649 171.376 70.2129 171.175C70.348 171.126 70.481 171.05 70.5597 170.931C70.6911 170.733 70.6416 170.474 70.5565 170.258C70.3395 169.707 69.9266 169.246 69.4367 168.903C68.5152 168.258 67.3002 168.055 66.607 167.099C66.333 166.721 66.1824 166.208 66.0728 165.758C66.0484 165.657 66.1117 165.516 66.217 165.532C66.4708 165.773 66.6612 166.082 66.9171 166.31C67.2017 166.563 67.6486 166.732 67.9992 166.882C68.7334 167.198 69.517 167.407 70.3166 167.508C71.9158 167.71 73.5884 167.48 75.0684 166.796C75.4664 166.613 75.859 166.393 76.1489 166.067C76.516 165.654 76.7315 164.879 76.3436 164.422C76.1611 164.207 75.8818 164.093 75.6031 164.025C75.8749 163.845 76.0106 163.504 75.9792 163.189C75.9478 162.875 75.7669 162.589 75.5259 162.383C75.2887 162.179 74.9977 162.076 74.6918 162.004C74.7886 161.675 74.7051 161.316 74.5146 161.036C74.3242 160.757 74.0363 160.552 73.7246 160.41C73.466 160.292 73.1835 160.21 72.9654 160.03C72.543 159.683 72.4504 159.016 72.3978 158.504C72.3329 157.872 72.3941 157.232 72.3877 156.597C72.3685 154.74 71.6088 152.977 70.5305 151.53C69.5755 150.25 67.7667 147.714 66.8187 146.433C66.4628 145.952 65.7621 145.857 65.2126 145.831C63.5517 145.753 61.8073 146.303 60.3198 147.008C58.7477 147.755 57.5246 148.766 56.6836 150.282Z" fill="#455A64"/>
<path d="M73.4097 162.43C73.1383 162.412 72.8718 162.369 72.6021 162.341C72.3302 162.311 72.0562 162.275 71.7902 162.214C71.4418 162.135 71.0965 162.04 70.797 161.848C70.7667 161.829 70.7353 161.807 70.7199 161.775C70.6879 161.709 70.7332 161.633 70.7741 161.57C70.8576 161.443 71.2944 160.702 71.1018 160.606C70.8295 160.936 70.5571 161.266 70.2847 161.596C70.1692 161.736 70.0639 161.88 69.9224 161.992C69.7649 162.117 69.6165 162.254 69.458 162.378C69.425 162.404 69.3904 162.426 69.3574 162.451C69.3537 162.256 69.3133 162.055 69.2382 161.853C69.0414 161.325 68.7046 160.856 68.2775 160.485C67.8662 160.128 67.4247 159.963 66.9496 159.772C67.0166 159.56 67.2252 159.297 67.3076 159.142C67.447 158.878 67.5821 158.612 67.6997 158.339C67.9359 157.788 68.0992 157.222 68.1072 156.626C68.1226 155.477 67.48 154.694 66.5868 154.052C66.4734 153.971 66.4245 154.09 66.4655 154.188C66.7788 154.931 67.2682 155.656 67.2534 156.493C67.2385 157.32 66.8687 158.107 66.4835 158.835C66.3436 159.099 66.0425 159.479 66.0111 159.781C65.9723 160.151 66.2558 160.275 66.5543 160.374C67.247 160.606 67.8167 160.98 68.187 161.615C68.3466 161.889 68.6844 162.479 68.3322 162.738C68.0535 162.943 67.5076 162.895 67.1751 162.923C66.399 162.988 65.5664 163.041 64.8131 162.838C64.0034 162.62 63.4549 162.085 62.9218 161.488C62.651 161.184 62.3813 160.884 62.1031 160.587C61.8195 160.285 61.5572 159.91 61.2109 159.676C61.1758 159.652 61.1731 159.718 61.1784 159.735C61.3806 160.413 61.9307 161.115 62.3552 161.674C62.75 162.194 63.1894 162.695 63.7608 163.036C64.7694 163.639 65.9952 163.704 67.1587 163.641C67.298 163.633 67.4454 163.626 67.5944 163.618C67.2709 163.8 66.9421 163.971 66.6416 164.191C66.6064 164.217 66.6288 164.301 66.6745 164.297C67.3528 164.24 68.0269 163.907 68.6291 163.517C70.1831 164.416 72.1712 164.908 73.9502 164.395C74.0082 164.378 73.9784 164.251 73.923 164.252C72.9622 164.262 71.9919 164.234 71.0577 164.012C70.3538 163.844 69.6926 163.56 69.0659 163.216C69.151 163.154 69.242 163.093 69.3223 163.032C69.6867 162.753 70.0208 162.438 70.3368 162.108C70.3757 162.135 70.4156 162.156 70.4576 162.178C70.5172 162.209 70.5778 162.238 70.6385 162.267C70.7603 162.323 70.8848 162.375 71.0109 162.422C71.2758 162.522 71.5461 162.601 71.8254 162.654C72.1142 162.71 72.3989 162.743 72.6952 162.744C72.9564 162.745 73.2027 162.682 73.4549 162.611C73.5368 162.588 73.4756 162.435 73.4097 162.43Z" fill="#37474F"/>
<path d="M69.6633 141.561C69.3717 143.133 68.7871 147.63 70.1426 150.088C64.6087 147.582 59.0616 151.284 58.2423 154.612C55.769 152.032 54.0805 147.773 53.5463 141.148C59.4483 137.345 66.284 138.332 69.6633 141.561Z" fill="#0973C0"/>
<path d="M121.652 96.0036C114.03 83.4713 83.2925 86.6692 79.0472 100.816C78.7562 101.785 78.6269 102.798 78.6482 103.811C78.6663 104.703 78.7567 105.639 78.8902 106.48C79.0599 107.545 79.377 108.585 79.8755 109.539C86.8154 122.821 118.511 119.762 122.842 105.388C123.154 104.355 123.271 103.273 123.238 102.195C123.216 101.487 123.153 100.722 123.047 99.9803C122.846 98.5732 122.388 97.2145 121.652 96.0036Z" fill="#455A64"/>
<path d="M90.7331 113.891C90.8353 114.856 90.7102 115.396 90.6001 115.873C90.5155 116.239 90.4421 116.569 90.5044 116.995C90.5948 117.019 90.6863 117.041 90.7773 117.063C90.6906 116.635 90.7592 116.33 90.8512 115.932C90.9603 115.46 91.0959 114.872 90.989 113.863C90.8725 112.763 91.0161 111.839 92.0966 110.907L91.9291 110.709C90.7634 111.714 90.6081 112.708 90.7331 113.891Z" fill="#37474F"/>
<path d="M101.959 113.811C96.4952 114.34 90.9161 113.652 86.5261 111.625C82.2477 109.649 79.717 106.708 79.3994 103.345C79.0818 99.982 81.0167 96.6102 84.8476 93.8507C92.7084 88.1875 106.246 86.8794 115.025 90.9348C119.303 92.9112 121.834 95.8515 122.151 99.2143C122.469 102.577 120.534 105.949 116.703 108.709C112.773 111.54 107.423 113.283 101.959 113.811ZM99.6159 89.0042C94.198 89.5277 88.8945 91.2556 84.9971 94.063C81.2444 96.7666 79.3472 100.054 79.6558 103.32C79.9644 106.587 82.4424 109.452 86.633 111.388C95.337 115.408 108.759 114.111 116.554 108.497C120.306 105.793 122.203 102.505 121.895 99.2393C121.586 95.9734 119.108 93.108 114.918 91.1721C110.566 89.1616 105.034 88.4807 99.6159 89.0042Z" fill="#37474F"/>
<path d="M120.857 95.27L121.13 98.1625C121.419 101.22 119.71 104.471 115.933 107.19C108.385 112.631 95.428 113.883 86.9974 109.986C82.7807 108.04 80.4942 105.175 80.2053 102.117L79.9319 99.2244C80.2208 102.282 82.5078 105.149 86.7239 107.096C95.154 110.99 108.111 109.738 115.66 104.3C119.437 101.581 121.146 98.3301 120.857 95.27Z" fill="#F0F0F0"/>
<path d="M108.002 110.915C109.052 110.611 110.076 110.257 111.06 109.853L110.786 106.96C109.803 107.363 108.779 107.716 107.728 108.019L108.002 110.915Z" fill="#FAFAFA"/>
<path d="M120.285 98.8701C119.507 100.769 117.974 102.635 115.66 104.3C115.481 104.429 115.295 104.555 115.109 104.68L115.383 107.574C115.568 107.449 115.754 107.32 115.933 107.191C118.247 105.525 119.78 103.659 120.558 101.761L120.285 98.8701Z" fill="#E0E0E0"/>
<path d="M101.89 109.157C96.5372 109.73 91.0385 109.089 86.7245 107.096C82.5079 105.15 80.2208 102.282 79.9324 99.2249L80.2059 102.117C80.4948 105.175 82.7813 108.04 86.9979 109.987C91.3119 111.981 96.8107 112.626 102.164 112.053L101.89 109.157Z" fill="#E0E0E0"/>
<path d="M87.3879 110.162C90.1059 111.349 93.2617 112.017 96.5436 112.201L96.2702 109.306C92.9888 109.122 89.8324 108.452 87.1144 107.266L87.3879 110.162Z" fill="#F5F5F5"/>
<path d="M121.158 94.1576C120.863 91.0391 118.532 88.1173 114.233 86.1319C105.636 82.1605 92.4253 83.4373 84.7267 88.9829C80.8772 91.7557 79.1349 95.0711 79.4296 98.1897C79.4472 98.3769 79.5179 99.1254 79.5355 99.3127C79.8302 102.431 82.1614 105.353 86.46 107.338C95.0571 111.31 108.268 110.033 115.966 104.487C119.816 101.715 121.558 98.3993 121.263 95.2807C121.246 95.0934 121.175 94.3449 121.158 94.1576Z" fill="#37474F"/>
<path d="M86.3537 106.216C94.9508 110.187 108.161 108.911 115.86 103.365C119.71 100.592 121.452 97.2768 121.157 94.1582C120.862 91.0397 118.531 88.1179 114.233 86.1325C105.635 82.1611 92.4249 83.4379 84.7263 88.9835C80.8767 91.7563 79.1344 95.0717 79.4292 98.1903C79.7239 101.309 82.0551 104.23 86.3537 106.216Z" fill="#455A64"/>
<path d="M94.2921 109.855C92.5588 109.706 90.8921 109.35 89.3961 108.778C89.2317 108.715 89.0913 108.725 88.995 108.795C88.9184 108.85 88.6337 109.057 88.5577 109.113C88.4587 109.184 88.4066 109.317 88.4236 109.498L88.4257 109.52C88.4598 109.878 88.7518 110.286 89.0849 110.414C90.5809 110.987 92.2481 111.343 93.9814 111.492C94.1202 111.503 94.2437 111.468 94.341 111.4C94.4198 111.344 94.7097 111.132 94.7842 111.079C94.9337 110.973 95.0204 110.787 95.0002 110.572L94.998 110.55C94.9629 110.191 94.6469 109.885 94.2921 109.855Z" fill="#37474F"/>
<path d="M89.0845 110.413C90.5805 110.986 92.2477 111.343 93.981 111.491C94.3358 111.522 94.5971 111.246 94.563 110.887L94.5609 110.865C94.5268 110.507 94.2108 110.201 93.856 110.17C92.1227 110.022 90.456 109.666 88.96 109.093C88.627 108.965 88.3897 109.139 88.4232 109.498L88.4253 109.519C88.4594 109.878 88.7514 110.286 89.0845 110.413Z" fill="#455A64"/>
<path d="M119.199 91.1172C119.199 91.1199 119.199 91.1226 119.199 91.1226C119.471 93.9932 117.864 97.0427 114.324 99.5947C107.236 104.7 95.0726 105.875 87.157 102.22C83.2005 100.39 81.0518 97.7007 80.781 94.8301C80.5102 91.9594 82.1136 88.9073 85.6589 86.3548C92.7467 81.2471 104.91 80.0719 112.825 83.7294C116.782 85.5573 118.928 88.2466 119.199 91.1172Z" fill="#263238"/>
<path d="M119.199 91.1172C119.199 91.1199 119.199 91.1226 119.199 91.1226C119.471 93.9932 117.864 97.0427 114.324 99.5947C107.236 104.7 95.0726 105.875 87.157 102.22C83.2005 100.39 81.0518 97.7007 80.781 94.8301C80.5102 91.9594 82.1136 88.9073 85.6589 86.3548C92.7467 81.2471 104.91 80.0719 112.825 83.7294C116.782 85.5573 118.928 88.2466 119.199 91.1172Z" fill="#455A64"/>
<path d="M99.1696 105.796C111.785 105.796 122.012 95.4514 122.012 82.6904C122.012 69.9294 111.785 59.5845 99.1696 59.5845C86.5543 59.5845 76.3276 69.9294 76.3276 82.6904C76.3276 95.4514 86.5543 105.796 99.1696 105.796Z" fill="#455A64"/>
<path d="M120.052 92.1063C119.8 92.6271 118.406 95.0695 113.518 97.3215C113.321 97.4119 113.122 97.4992 112.921 97.5832C109.951 98.8244 105.947 99.4415 102.01 99.3181C96.491 99.1452 91.3758 96.3421 88.0955 91.8488C88.2615 91.2471 88.3163 90.5279 88.2391 89.7102C88.07 87.92 87.2991 86.0324 86.2191 84.488C87.1698 82.3898 88.2562 75.5223 100.052 68.2716C105.763 64.7615 113.594 65.4786 115.754 66.7544C110.839 61.486 103.555 58.5871 95.8324 59.6718C83.9342 61.3429 75.2355 72.2164 76.0856 84.3375C76.4197 89.1032 78.1428 93.4161 80.8172 96.915C80.9358 97.0704 81.0103 97.2555 81.0289 97.4513C81.3003 100.322 83.4485 103.011 87.405 104.841C95.3201 108.497 107.483 107.321 114.572 102.216C118.114 99.6612 119.718 96.6091 119.447 93.7385C119.428 93.5427 119.466 93.3464 119.554 93.1708C119.728 92.8208 119.895 92.4659 120.052 92.1063Z" fill="#F0F0F0"/>
<path d="M118.763 93.8251C118.085 95.7233 116.6 97.597 114.293 99.2616C108.107 103.716 98.0556 105.18 90.3384 103.047C89.2105 102.739 88.1348 102.353 87.1267 101.887C85.5983 101.18 84.3374 100.343 83.3532 99.4175C82.2695 98.644 81.2162 97.2794 80.7321 96.7937C80.7321 96.7937 81.0449 97.947 81.105 98.1455L81.1992 98.4562C81.2141 98.5046 81.2289 98.553 81.2412 98.6014C81.5247 99.6282 82.0583 100.614 82.8351 101.536C83.9001 102.796 85.427 103.926 87.4049 104.841C95.32 108.496 107.483 107.32 114.572 102.215C118.114 99.6601 119.718 96.6085 119.447 93.7379C119.428 93.5432 119.464 93.3458 119.554 93.1718C119.719 92.8388 119.877 92.501 120.026 92.1615C119.886 92.4345 119.527 93.0436 118.763 93.8251Z" fill="#E0E0E0"/>
<path d="M115.753 66.7543C118.347 70.0309 115.113 76.3335 111.575 78.802C113.471 79.6575 114.695 82.8819 113.978 85.0312C117.716 86.2005 120.782 89.3053 120.053 92.1057C121.598 88.5764 122.297 84.6088 121.908 80.4927C121.402 75.1397 119.139 70.3847 115.753 66.7543Z" fill="#37474F"/>
<path d="M85.1604 94.2806C84.7492 94.3205 84.3007 94.2311 83.8283 94.013C81.737 93.0469 79.7995 89.7591 79.509 86.6836C79.3398 84.8918 79.7494 83.4991 80.6326 82.8633C81.247 82.4207 82.0221 82.3946 82.8728 82.7878C84.9641 83.7534 86.9017 87.0417 87.1921 90.1172C87.3613 91.9089 86.9517 93.3012 86.0685 93.9374C85.7946 94.1343 85.4897 94.2487 85.1604 94.2806ZM81.5598 82.7309C81.2656 82.7591 80.9943 82.8607 80.7528 83.0346C79.9442 83.6172 79.5563 84.9743 79.7159 86.6639C80 89.6724 81.8838 92.8835 83.9145 93.822C84.6938 94.1816 85.3966 94.1635 85.9472 93.7661C86.7564 93.1831 87.1437 91.8265 86.9841 90.1368C86.7 87.1284 84.8167 83.9172 82.7861 82.9788C82.3483 82.7772 81.9354 82.6947 81.5598 82.7309Z" fill="#E0E0E0"/>
<path d="M109.24 61.8706C104.914 61.221 97.2257 61.8036 89.1632 70.7215L85.7861 71.2657C85.7861 71.2657 81.554 77.3321 81.1364 82.717C82.3159 82.2441 84.746 83.3921 86.3516 87.1965C87.9572 91.0008 86.557 93.2565 86.557 93.2565L88.0412 94.9658C91.2109 98.6164 95.676 100.876 100.469 101.193C104.054 101.43 107.735 101.082 110.465 100.279C111.59 99.948 112.712 99.5272 113.774 98.993C116.828 97.4577 118.53 95.8792 119.464 94.711C119.481 94.3854 119.478 94.0603 119.447 93.7379C119.445 93.7161 119.446 93.6948 119.446 93.673C118.406 94.8562 116.512 96.6389 113.578 98.0913C112.633 98.5589 111.56 98.9356 110.445 99.2393C107.929 99.9251 104.617 100.246 101.324 100.09C96.0446 99.8405 91.1481 97.2279 87.8992 93.0123L87.497 92.4909C87.497 92.4909 87.9391 90.5491 87.3981 88.3248C86.8565 86.1005 85.3477 84.2582 85.3477 84.2582C85.3477 84.2582 87.1975 74.6711 98.8988 67.9216C105.841 63.9172 111.248 64.4162 114.792 65.7829C113.145 64.2146 111.274 62.8942 109.24 61.8706Z" fill="#E0E0E0"/>
<path opacity="0.2" d="M84.7513 83.9082C86.9368 77.3806 91.1896 72.0707 97.9896 67.8844C103.677 64.3827 108.963 63.5837 113.996 65.0642C112.771 63.9997 111.436 63.0639 110.013 62.2787C109.993 62.2755 103.619 61.2205 97.4257 64.6791C91.2231 68.1434 89.4228 71.2966 89.4228 71.2966L85.8371 71.8116C85.8371 71.8116 81.9732 78.0924 81.6242 82.2872C82.0078 82.2393 82.7904 82.4723 82.7904 82.4723L82.9271 82.0701C83.2968 82.1771 83.6341 82.3484 83.9416 82.5777L83.7687 83.0815C83.7687 83.0815 84.2837 83.4267 84.7513 83.9082Z" fill="black"/>
<path d="M78.7339 83.9512C77.955 84.2991 77.4039 85.1673 77.2645 86.4739C76.9857 89.0866 78.4599 92.4621 80.557 94.0129C81.6056 94.7886 82.6116 94.9609 83.3905 94.613C83.8634 94.4018 84.7258 94.0187 85.1987 93.807C85.9776 93.4591 86.5287 92.5903 86.6681 91.2843C86.9469 88.6711 85.4727 85.2961 83.3756 83.7453C82.327 82.9696 81.321 82.7978 80.5421 83.1457C80.0697 83.3569 79.2068 83.74 78.7339 83.9512Z" fill="#0973C0"/>
<path opacity="0.2" d="M78.7339 83.9512C77.955 84.2991 77.4039 85.1673 77.2645 86.4739C76.9857 89.0866 78.4599 92.4621 80.557 94.0129C81.6056 94.7886 82.6116 94.9609 83.3905 94.613C83.8634 94.4018 84.7258 94.0187 85.1987 93.807C85.9776 93.4591 86.5287 92.5903 86.6681 91.2843C86.9469 88.6711 85.4727 85.2961 83.3756 83.7453C82.327 82.9696 81.321 82.7978 80.5421 83.1457C80.0697 83.3569 79.2068 83.74 78.7339 83.9512Z" fill="black"/>
<path d="M80.5571 94.0134C81.6056 94.7885 82.6116 94.9614 83.3905 94.6135C84.1693 94.2656 84.7205 93.3968 84.8599 92.0908C85.1386 89.4781 83.665 86.1026 81.5673 84.5518C80.5188 83.7767 79.5127 83.6038 78.7339 83.9517C77.955 84.2996 77.4039 85.1684 77.2645 86.4744C76.9857 89.0871 78.4594 92.4621 80.5571 94.0134Z" fill="#0973C0"/>
<path d="M80.5571 94.0134C81.6056 94.7885 82.6116 94.9614 83.3905 94.6135C84.1693 94.2656 84.7205 93.3968 84.8599 92.0908C85.1386 89.4781 83.665 86.1026 81.5673 84.5518C80.5188 83.7767 79.5127 83.6038 78.7339 83.9517C77.955 84.2996 77.4039 85.1684 77.2645 86.4744C76.9857 89.0871 78.4594 92.4621 80.5571 94.0134Z" fill="#0973C0"/>
<path d="M83.3182 91.0512C83.4485 89.4345 82.485 87.3756 81.1657 86.4532C80.5044 85.9903 79.8788 85.9015 79.4037 86.1313C79.259 86.201 78.2886 86.6638 78.1439 86.733C77.6667 86.9591 77.3385 87.5049 77.273 88.3157C77.1427 89.9324 78.1062 91.9913 79.4255 92.9138C80.0863 93.3761 80.7108 93.4654 81.1859 93.2362C81.3311 93.1659 82.3063 92.7015 82.4531 92.6313C82.9271 92.403 83.2527 91.8588 83.3182 91.0512Z" fill="#E0E0E0"/>
<path d="M79.8974 87.058C81.2162 87.9805 82.1802 90.0393 82.0499 91.6561C81.9195 93.2728 80.7443 93.8357 79.4255 92.9132C78.1067 91.9907 77.1427 89.9319 77.273 88.3151C77.4034 86.6984 78.5786 86.1355 79.8974 87.058Z" fill="#FAFAFA"/>
<path d="M79.7415 87.7677C80.7651 88.4837 81.513 90.0813 81.412 91.3363C81.3109 92.5913 80.399 93.0281 79.3749 92.312C78.3514 91.5959 77.6034 89.9984 77.7045 88.7434C77.8055 87.4884 78.7174 87.0516 79.7415 87.7677Z" fill="#263238"/>
<path d="M80.7118 89.0148L79.4675 90.082L78.288 87.5608C78.6556 87.3831 79.1403 87.4523 79.651 87.8103C80.0596 88.0982 80.4256 88.5248 80.7118 89.0148Z" fill="#455A64"/>
<path d="M81.322 91.3806C81.2715 92.0073 81.0177 92.4307 80.6491 92.6052L79.468 90.0825L80.7124 89.0153C81.1374 89.7495 81.3827 90.6273 81.322 91.3806Z" fill="#37474F"/>
<path d="M80.6485 92.6053C80.2793 92.7829 79.7963 92.7138 79.2845 92.3557C78.8743 92.069 78.5099 91.6413 78.2253 91.1497L79.468 90.082L80.6485 92.6053Z" fill="#455A64"/>
<path d="M79.468 90.0825L78.2253 91.1503C77.7986 90.4156 77.5544 89.5394 77.6151 88.7877C77.6656 88.1594 77.9194 87.7375 78.288 87.5614L79.468 90.0825Z" fill="#37474F"/>
<path d="M86.7411 83.0984C86.7145 83.1718 86.69 83.2447 86.6655 83.3128C86.4932 83.7932 86.3543 84.1895 86.2192 84.4885C87.2981 86.0334 88.0695 87.9199 88.2387 89.7096C88.3158 90.5278 88.2594 91.2465 88.0961 91.8493L88.6275 92.5435L89.1356 93.1484C89.4564 92.4281 89.8623 91.4306 89.6527 89.21C89.4431 86.9894 88.302 84.2863 86.7411 83.0984Z" fill="#263238"/>
<path opacity="0.3" d="M121.907 80.4942C122.064 82.1519 122.045 83.7894 121.863 85.3801C121.682 86.9729 121.341 88.5242 120.852 90.0107C124.494 76.3255 115.82 67.4134 115.82 67.4134C111.767 65.4142 103.542 66.6862 98.7892 69.0749C99.1968 68.8073 99.617 68.5386 100.053 68.271C105.763 64.7619 113.593 65.4791 115.753 66.7537C119.141 70.3825 121.402 75.1402 121.907 80.4942Z" fill="#FAFAFA"/>
<path opacity="0.2" d="M118.759 74.788C118.043 72.5164 116.872 70.5943 114.756 69.4585C112.855 68.4386 110.613 68.0997 108.489 68.3844C107.872 68.4668 107.229 68.6131 106.768 69.0355C106.084 69.6606 105.988 70.7512 106.302 71.628C106.615 72.5047 107.259 73.2133 107.902 73.8805C110.511 76.5878 113.454 79.143 114.965 82.6015C115.663 84.197 116.022 85.9185 116.546 87.58C116.828 88.4706 117.582 89.3404 118.613 88.9079C119.772 88.4216 119.829 86.9304 119.934 85.86C120.062 84.5518 120.117 83.2351 120.064 81.9211C119.968 79.4952 119.488 77.0985 118.759 74.788ZM118.882 90.8848C118.865 90.5624 118.725 90.2458 118.461 90.0697C118.232 89.9171 117.94 89.8857 117.669 89.9314C116.843 90.0708 116.271 90.7624 116.341 91.6184C116.357 91.8115 116.453 92.0068 116.585 92.1451C116.91 92.4877 117.436 92.6175 117.881 92.4653C118.376 92.2962 118.777 91.6652 118.865 91.1657C118.881 91.0736 118.887 90.9789 118.882 90.8848Z" fill="#FAFAFA"/>
<path opacity="0.2" d="M95.9179 75.8387C94.1528 75.3355 91.7444 78.5807 90.9847 80.6023C90.4202 82.1046 90.3851 83.8826 90.6107 85.4222C90.6894 85.959 90.8687 86.5756 91.156 87.1246C91.6688 88.1061 92.8004 88.9717 93.8995 88.2397C94.3874 87.9146 94.6959 87.3815 94.963 86.8554C95.8701 85.0668 99.3052 76.8049 95.9179 75.8387ZM94.3501 89.9261C93.4165 89.6936 92.4802 90.4464 92.4727 91.3189C92.4684 91.794 92.8547 92.2557 93.193 92.3643C93.7213 92.5345 94.4656 92.3137 94.7938 91.8748C95.2971 91.2024 95.2939 90.1607 94.3501 89.9261Z" fill="#FAFAFA"/>
</svg>
